<?xml version="1.0" encoding="UTF-8"?>
<svg width="64px" height="64px" viewBox="0 0 64 64" version="1.1" xmlns="http://www.w3.org/2000/svg" xmlns:xlink="http://www.w3.org/1999/xlink">
    <title>Amazon</title>
    <g id="Amazon" stroke="none" stroke-width="1" fill="none" fill-rule="evenodd">
        <circle id="Oval" fill="#222222" cx="32" cy="32" r="32"></circle>
        <path d="M45.5770522,44.7717759 C30.2646349,51.6913648 20.7615801,45.9019446 14.6783736,42.3855726 C14.3019473,42.1639601 13.6621535,42.4373835 14.2172623,43.0428113 C16.2438822,45.3760984 22.8855441,51 31.5548445,51 C40.2301106,51 45.3910944,46.5052999 46.0367085,45.7212281 C46.6779574,44.9437881 46.2249944,44.514932 45.5769067,44.7717759 L45.5770522,44.7717759 Z M49.8775083,42.5166888 C49.4663058,42.008251 47.377118,41.9134716 46.0623177,42.0668319 C44.7454804,42.215771 42.7689148,42.9799474 42.9407585,43.4387848 C43.0289356,43.6106589 43.2089276,43.5335642 44.113544,43.4563314 C45.0206339,43.3703944 47.5617662,43.0658844 48.0912658,43.7231231 C48.6232389,44.3849211 47.2807924,47.5375114 47.0356133,48.0459491 C46.7987281,48.5543869 47.1261186,48.685503 47.5710786,48.3468669 C48.0099274,48.0083689 48.804395,47.1317283 49.3375322,45.8911679 C49.8670318,44.6438375 50.1899116,42.9038199 49.8773628,42.5166888 L49.8775083,42.5166888 Z" id="Shape" fill="#FF9900" fill-rule="nonzero"></path>
        <path d="M45.5770522,44.7717759 C30.2646349,51.6913648 20.7615801,45.9019446 14.6783736,42.3855726 C14.3019473,42.1639601 13.6621535,42.4373835 14.2172623,43.0428113 C16.2438822,45.3760984 22.8855441,51 31.5548445,51 C40.2301106,51 45.3910944,46.5052999 46.0367085,45.7212281 C46.6779574,44.9437881 46.2249944,44.514932 45.5769067,44.7717759 L45.5770522,44.7717759 Z M49.8775083,42.5166888 C49.4663058,42.008251 47.377118,41.9134716 46.0623177,42.0668319 C44.7454804,42.215771 42.7689148,42.9799474 42.9407585,43.4387848 C43.0289356,43.6106589 43.2089276,43.5335642 44.113544,43.4563314 C45.0206339,43.3703944 47.5617662,43.0658844 48.0912658,43.7231231 C48.6232389,44.3849211 47.2807924,47.5375114 47.0356133,48.0459491 C46.7987281,48.5543869 47.1261186,48.685503 47.5710786,48.3468669 C48.0099274,48.0083689 48.804395,47.1317283 49.3375322,45.8911679 C49.8670318,44.6438375 50.1899116,42.9038199 49.8773628,42.5166888 L49.8775083,42.5166888 Z" id="Shape" fill="#FF9900" fill-rule="nonzero"></path>
        <path d="M40.0277811,41.6013468 C39.7097124,41.880376 39.2495826,41.9004067 38.8910065,41.7142472 C37.294102,40.4118306 37.0098371,39.8071272 36.1302274,38.5643826 C33.4912558,41.2092771 31.6236364,42 28.1997626,42 C24.1533015,42 21,39.5478486 21,34.6369621 C21,30.8026915 23.1180806,28.1909947 26.1290357,26.9151924 C28.7410499,25.7853482 32.3882849,25.5860216 35.176164,25.2737946 L35.176164,24.6623676 C35.176164,23.5392469 35.2640251,22.2102161 34.5942267,21.2400573 C34.0054431,20.3694917 32.8822185,20.0106198 31.8942088,20.0106198 C30.0605357,20.0106198 28.4229812,20.9342737 28.0237551,22.8481173 C27.9424551,23.2735248 27.624529,23.6922087 27.1914992,23.7120994 L22.5224507,23.2204364 C22.1300709,23.1338701 21.6970411,22.8216431 21.8052985,22.2301068 C22.8811694,16.6747357 27.9898088,15 32.5640072,15 C34.9053064,15 37.9637578,15.611427 39.8111235,17.3525582 C42.1524228,19.4989261 41.9290616,22.3630379 41.9290616,25.4797047 L41.9290616,32.8427426 C41.9290616,35.0556461 42.8628713,36.0258049 43.7424809,37.2220447 C44.0537033,37.6473121 44.1214533,38.1591459 43.7289309,38.4779564 C42.7477675,39.2819864 41.0019555,40.7772861 40.0411885,41.6146539 L40.0276384,41.6013468" id="Path" fill="#FFFFFF" fill-rule="nonzero"></path>
        <path d="M35.176164,30.0849477 C35.176164,31.9256721 35.2235177,33.4607531 34.276158,35.0954273 C33.5115095,36.4245982 32.3002812,37.2419353 30.9469917,37.2419353 C29.099626,37.2419353 28.0237551,35.8596761 28.0237551,33.819625 C28.0237551,29.7924712 31.6979475,29.0615603 35.176164,29.0615603 L35.176164,30.0849477 Z" id="Path" fill="#222222" fill-rule="nonzero"></path>
    </g>
</svg>