<?xml version="1.0" encoding="UTF-8"?>
<svg width="64px" height="64px" viewBox="0 0 64 64" version="1.1" xmlns="http://www.w3.org/2000/svg" xmlns:xlink="http://www.w3.org/1999/xlink">
    <title>Apple</title>
    <g id="Apple" stroke="none" stroke-width="1" fill="none" fill-rule="evenodd">
        <circle id="Oval" fill="#222222" cx="32" cy="32" r="32"></circle>
        <path d="M42.0550846,31.707936 C42.10686,37.290806 46.9463825,39.1486228 47,39.1722712 C46.9590796,39.3032267 46.2267237,41.8197736 44.4503068,44.4191888 C42.9146093,46.6665785 41.3208866,48.9056024 38.8102058,48.951977 C36.3432086,48.9974953 35.5499326,47.4872246 32.7294546,47.4872246 C29.9098317,47.4872246 29.0284652,48.9056683 26.6931762,48.9975611 C24.2697308,49.089454 22.424236,46.5674396 20.8759073,44.328284 C17.7119482,39.7481331 15.294029,31.3858829 18.540684,25.741224 C20.1535512,22.9380636 23.0358703,21.1629834 26.1643695,21.1174651 C28.5441314,21.0720127 30.7902772,22.7205509 32.2451207,22.7205509 C33.6990432,22.7205509 36.4286018,20.7380365 39.298158,21.0291953 C40.4994533,21.0792588 43.8715667,21.5150746 46.0367928,24.6885731 C45.8623221,24.7968684 42.0132432,27.0405034 42.0550846,31.707936 M38.1671196,17.5329074 C39.3732438,16.0680958 40.1850356,14.0289431 39.9635706,12 C38.2250299,12.0701065 36.1227462,13.1623573 34.8757333,14.6263644 C33.7581705,15.9228089 32.7794319,17.9978503 33.0435125,19.9866353 C34.9813162,20.137058 36.9609338,18.998647 38.1671196,17.5329074" id="Shape" fill="#FFFFFF" fill-rule="nonzero"></path>
    </g>
</svg>