<?xml version="1.0" encoding="UTF-8"?>
<svg width="64px" height="64px" viewBox="0 0 64 64" version="1.1" xmlns="http://www.w3.org/2000/svg" xmlns:xlink="http://www.w3.org/1999/xlink">
    <title>BP</title>
    <g id="BP" stroke="none" stroke-width="1" fill="none" fill-rule="evenodd">
        <circle id="Oval" fill="#34A457" cx="32" cy="32" r="32"></circle>
        <path d="M31.9975619,8 C32.6772371,9.00731073 33.8963014,10.9004048 34.9285675,13.2541209 C33.7631421,14.5140905 32.7841397,15.815431 31.9975619,17.1289613 C31.2132347,15.8150616 30.2353576,14.5137211 29.0684317,13.2541209 C30.1006978,10.9004048 31.3235131,9.00546381 31.9975619,8 L31.9975619,8 Z M31.9975619,46.8706694 C32.7845148,48.1830914 33.7631421,49.4829545 34.9300679,50.7447709 C33.8978018,53.1018115 32.6757367,54.9956443 31.9975619,56 C31.3235131,54.993428 30.1006978,53.1018115 29.0684317,50.7447709 C30.2353576,49.4829545 31.2151101,48.1856771 31.9975619,46.8706694 Z M23.6644135,9.44724732 C24.6497925,10.166069 26.4562583,11.5331599 28.2439691,13.3992889 C27.5845491,14.9754513 27.1153032,16.5272344 26.8343557,18.0269343 C25.6400478,17.056562 24.2698196,16.1633909 22.7349238,15.3732781 C22.8864629,12.8112293 23.3778396,10.6211503 23.6644135,9.44724732 L23.6644135,9.44724732 Z M37.1641439,45.975282 C38.3577016,46.9456543 39.7298053,47.8358703 41.2632007,48.6281994 C41.1139122,51.1887707 40.6214102,53.3781109 40.3348363,54.554969 C39.3502075,53.8335616 37.544867,52.4672095 35.7537803,50.6021886 C36.4147007,49.0234405 36.8835715,47.473135 37.1641439,45.975282 L37.1641439,45.975282 Z M16.3338986,13.6150093 C17.5083264,13.9581672 19.6805114,14.6330322 22.0091117,15.7866191 C21.9924001,16.1552965 21.9828958,16.5242565 21.9806044,16.8932941 C21.9806044,18.1938959 22.0890073,19.4331799 22.2878086,20.6070829 C20.8301828,20.0984409 19.2345214,19.7220384 17.5192042,19.496714 C16.7712613,17.0392009 16.4726844,14.8166161 16.3338986,13.6150093 L16.3338986,13.6150093 Z M42.0182703,47.1115079 C42.0199273,45.8661482 41.9173032,44.6227746 41.7114412,43.3940252 C43.1679417,43.9026673 44.7666039,44.2790698 46.4792954,44.5036554 C47.2279885,46.9622766 47.5261903,49.184492 47.664601,50.3835132 C46.4864223,50.0429409 44.3164878,49.366229 41.9905132,48.2155972 C42.0073246,47.8477894 42.0165788,47.4796843 42.0182703,47.1115079 L42.0182703,47.1115079 Z M16.9809404,20.1302079 C17.5045754,21.7503271 18.1553682,23.2330353 18.9175647,24.557647 C17.3714161,24.5702061 15.7374948,24.7615471 14.05106,25.1279762 C12.4936585,23.0693981 11.4407621,21.0810029 10.8942462,19.9990765 C12.1170614,19.9263079 14.3905226,19.8306373 16.9809404,20.1302079 Z M49.9481898,38.871285 C51.5055913,40.9324489 52.5592379,42.9193665 53.1057538,44.0001847 C51.8821884,44.0736921 49.607602,44.1689933 47.0179343,43.871639 C46.4954246,42.2481954 45.8420061,40.7665954 45.0824353,39.4412448 C46.6240828,39.4323796 48.2602546,39.2391917 49.9481898,38.871285 L49.9481898,38.871285 Z M13.7641111,25.9022055 C14.8215087,27.2548905 15.9505498,28.4295323 17.1276032,29.4180044 C15.6778544,29.9491789 14.2074754,30.6746495 12.7453484,31.5873978 C10.5682871,30.1770889 8.88897919,28.6663075 8,27.8314992 C9.12266444,27.3516692 11.2288324,26.4946978 13.7641111,25.9022055 L13.7641111,25.9022055 Z M51.2542765,32.4111246 C53.4294623,33.819956 55.1083951,35.3344312 56,36.1670232 C54.8754601,36.6490696 52.7700423,37.5053022 50.2336384,38.0963169 C49.1781162,36.7473258 48.0490752,35.5712065 46.8686458,34.5834731 C48.3210203,34.0511905 49.789899,33.3246118 51.2542765,32.4111246 L51.2542765,32.4111246 Z M12.7453484,32.4111246 C14.2074754,33.3246118 15.6778544,34.0508211 17.1276032,34.5834731 C15.9494245,35.572684 14.8200083,36.7469564 13.7641111,38.0963169 C11.2288324,37.5053022 9.12266444,36.6490696 8,36.1670232 C8.88897919,35.3344312 10.567912,33.8232804 12.7453484,32.4111246 Z M50.2336384,25.900728 C52.7700423,26.4943284 54.8754601,27.3494528 56,27.8314992 C55.1083951,28.6640912 53.4290872,30.1770889 51.2542765,31.5873978 C49.789899,30.6746495 48.3210203,29.9488095 46.8690209,29.4180044 C48.0490752,28.4295323 49.1781162,27.2548905 50.2336384,25.900728 Z M14.0514351,38.871285 C15.7378699,39.2391917 17.371041,39.432749 18.9179398,39.4412448 C18.1557433,40.7665954 17.5045754,42.2485648 16.9813155,43.8701615 C14.3908977,44.1689933 12.115561,44.0736921 10.8949964,44.0001847 C11.4415123,42.917889 12.4940336,40.9324489 14.0514351,38.871285 L14.0514351,38.871285 Z M53.1057538,19.9990765 C52.5592379,21.0810029 51.5055913,23.0693981 49.9481898,25.1279762 C48.2602546,24.7615471 46.6229575,24.5702061 45.0820602,24.557647 C45.841631,23.2330353 46.4954246,21.7503271 47.0175592,20.1279916 C49.6072269,19.8306373 51.8821884,19.9263079 53.1057538,19.9990765 L53.1057538,19.9990765 Z M22.2874335,43.3940252 C22.0812696,44.622743 21.9785189,45.8661311 21.9802293,47.1115079 C21.9802293,47.473135 21.9941079,47.8436274 22.0087366,48.2152279 C19.6786359,49.3658597 17.5102018,50.0425715 16.3335235,50.3831438 C16.4726844,49.1841226 16.7712613,46.9619073 17.5188291,44.503286 C19.2315206,44.2790698 20.8283073,43.9026673 22.2874335,43.3940252 L22.2874335,43.3940252 Z M47.664601,13.6150093 C47.5261903,14.8158774 47.2279885,17.0392009 46.4792954,19.4963446 C44.7684794,19.7201915 43.1679417,20.096594 41.7114412,20.6067136 C41.9098674,19.4309636 42.0182703,18.1927878 42.0182703,16.8899697 C42.0169674,16.5218835 42.0069621,16.1538771 41.9882626,15.7862497 C44.3164878,14.6330322 46.4864223,13.9581672 47.664601,13.6150093 L47.664601,13.6150093 Z M26.8339806,45.975282 C27.1153032,47.473135 27.5845491,49.0256568 28.2439691,50.6018192 C26.4562583,52.4668401 24.6497925,53.8331922 23.6644135,54.5531221 C23.3774645,53.3755252 22.8860878,51.1884013 22.7349238,48.62783 C24.2686943,47.8358703 25.6400478,46.9456543 26.8339806,45.975282 Z M40.3348363,9.44576978 C40.6199098,10.6193034 41.1135371,12.8112293 41.2632007,15.3736475 C39.7298053,16.1633909 38.3577016,17.056562 37.1641439,18.0273036 C36.8835715,16.5272344 36.4124501,14.9758207 35.7537803,13.3996583 C37.544867,11.5320518 39.3502075,10.166069 40.3348363,9.44576978 L40.3348363,9.44576978 Z M28.7717302,13.978114 C29.9060226,15.231804 30.8572679,16.5224324 31.598459,17.8245117 C30.9334125,19.0530836 30.4431611,20.3049267 30.1292052,21.5530759 C29.4003923,20.4866637 28.5054116,19.4756591 27.4543906,18.5451803 C27.6974532,17.0702292 28.1419428,15.5383929 28.7717302,13.978114 L28.7717302,13.978114 Z M33.8700446,42.4480323 C34.6003579,43.515922 35.4934632,44.5258184 36.5471098,45.4551891 C36.3032969,46.9290321 35.8546813,48.4616071 35.2267694,50.0241023 C34.0928521,48.7659797 33.1389811,47.4768288 32.4004157,46.1743801 C33.0650871,44.9472858 33.5553385,43.6969203 33.8700446,42.4480323 L33.8700446,42.4480323 Z M22.6854111,16.8932941 C22.6854111,16.6487618 22.6981644,16.3990581 22.7056663,16.1493543 C24.2075535,16.947963 25.5503997,17.8407646 26.6985707,18.8152002 C26.5819157,19.6263679 26.5170239,20.4271928 26.5170239,21.209918 C26.5170239,21.7543903 26.556034,22.2859342 26.6122985,22.8115679 C25.5549009,22.0539609 24.3635937,21.4064304 23.0530059,20.8855986 C22.8106934,19.6378188 22.6854111,18.2995398 22.6854111,16.8932941 L22.6854111,16.8932941 Z M37.4811006,42.790082 C37.4811006,42.2445016 37.4417154,41.7159128 37.385826,41.185477 C38.4428485,41.9471473 39.6356561,42.5924615 40.946244,43.1155095 C41.1874311,44.3643975 41.3104629,45.7004602 41.3104629,47.1115079 C41.3104629,47.3530851 41.3003352,47.6035276 41.2943337,47.8495375 C39.7901959,47.0531452 38.4488501,46.1607129 37.2980534,45.1851692 C37.4158338,44.3728934 37.4811006,43.5720684 37.4811006,42.790082 Z M17.7626419,20.23696 C19.4513273,20.4818617 21.0214821,20.8674988 22.4389725,21.3938713 C22.7304227,22.7583766 23.1730368,24.0253644 23.7469348,25.1830145 C22.491111,24.8243424 21.1471395,24.6178566 19.7330249,24.5683592 C18.9580751,23.2873347 18.3001555,21.830114 17.7626419,20.23696 L17.7626419,20.23696 Z M40.2496894,38.8177243 C41.5062633,39.1756576 42.8476091,39.381774 44.2635992,39.4323796 C45.0415498,40.7122959 45.6972188,42.1702553 46.2366079,43.764887 C44.5471723,43.5218321 42.9766424,43.1343481 41.5580267,42.6039124 C41.2680769,41.2419928 40.8247126,39.975005 40.2496894,38.8177243 L40.2496894,38.8177243 Z M19.3294209,25.2517199 C20.0781139,26.4341188 20.9340846,27.4772598 21.8767026,28.3733859 C20.5724913,28.4598218 19.2390226,28.7183907 17.8931756,29.1483539 C16.7202482,28.2067936 15.5942079,27.0583781 14.5338095,25.7393071 C16.2056155,25.4024287 17.817406,25.2321426 19.3294209,25.2517199 Z M46.1060742,34.8505379 C47.280502,35.7935758 48.4035415,36.9427301 49.4658154,38.2614317 C47.7947596,38.5990488 46.1814687,38.7700737 44.670204,38.7497576 C43.9185102,37.5658812 43.0629147,36.5227402 42.1236725,35.6266141 C43.4263834,35.5394395 44.7617276,35.2827174 46.1060742,34.8505379 Z M17.7540147,29.928124 C18.8669266,30.7865729 20.0304766,31.4784295 21.22666,32.0029551 C20.031977,32.5208317 18.8669266,33.2134271 17.7540147,34.0722454 C16.323771,33.5817032 14.8657701,32.8809813 13.4156462,32.0029551 C14.865395,31.1182799 16.323771,30.4186662 17.7540147,29.928124 L17.7540147,29.928124 Z M46.24486,29.928124 C47.6777294,30.4186662 49.1319793,31.1186493 50.5832285,32 C49.1319793,32.8809813 47.6739784,33.5813338 46.24486,34.071876 C45.1311979,33.2134271 43.9657724,32.5208317 42.7707143,32.0025857 C43.9668977,31.4784295 45.1311979,30.7865729 46.24486,29.928124 L46.24486,29.928124 Z M17.8935507,34.8505379 C19.2375222,35.2827174 20.5728664,35.5394395 21.8770777,35.6269835 C20.9344597,36.5245871 20.078489,37.5662506 19.329796,38.750127 C17.8162808,38.7704431 16.2044902,38.5994182 14.5345597,38.2618011 C15.5942079,36.9427301 16.7202482,35.7935758 17.8935507,34.8505379 Z M49.4658154,25.7393071 C48.4035415,27.0580087 47.280502,28.2038385 46.1060742,29.1483539 C44.7617276,28.7183907 43.4260083,28.4601912 42.1236725,28.3733859 C43.0629147,27.4772598 43.9185102,26.4341188 44.670204,25.2517199 C46.1818438,25.2321426 47.7947596,25.4024287 49.4658154,25.7393071 L49.4658154,25.7393071 Z M23.74806,38.8177243 C23.1730368,39.975005 22.7307978,41.2416234 22.4389725,42.6039124 C21.0203568,43.1343481 19.4494518,43.5214628 17.7626419,43.764887 C18.3001555,42.1706247 18.9580751,40.7137734 19.7334,39.4323796 C21.1475146,39.3821434 22.4914861,39.1756576 23.74806,38.8177243 L23.74806,38.8177243 Z M46.2366079,20.2358518 C45.6972188,21.830114 45.0415498,23.2873347 44.2635992,24.5683592 C42.8476091,24.6178566 41.5058882,24.8243424 40.2496894,25.1830145 C40.8247126,24.0253644 41.2680769,22.7583766 41.5580267,21.3938713 C42.9781428,20.8634356 44.5494229,20.479276 46.2366079,20.2358518 L46.2366079,20.2358518 Z M30.1288301,42.4480323 C30.4431611,43.6969203 30.9334125,44.9472858 31.5980839,46.1743801 C30.8568928,47.4764595 29.9060226,48.7685654 28.7713551,50.0241023 C28.1415677,48.4634541 27.6970782,46.9319871 27.4536404,45.4551891 C28.5054116,44.5243409 29.4000172,43.515922 30.1288301,42.4480323 Z M26.6122985,41.185477 C26.556034,41.7159128 26.5170239,42.2474566 26.5170239,42.7915596 C26.5170239,43.5720684 26.5819157,44.3728934 26.6978205,45.1851692 C25.5492744,46.1607129 24.2071784,47.0531452 22.7056663,47.8495375 C22.6981644,47.6035276 22.6854111,47.3530851 22.6854111,47.1085528 C22.6854111,45.7004602 22.8106934,44.3640281 23.0526308,43.1151401 C24.3635937,42.5924615 25.5556511,41.9475167 26.6122985,41.185477 L26.6122985,41.185477 Z M35.2263943,13.9766364 C35.8550564,15.5387623 36.3032969,17.0702292 36.5471098,18.542964 C35.4934632,19.4756591 34.600733,20.4866637 33.8700446,21.5527065 C33.5557136,20.305296 33.0650871,19.0549305 32.4004157,17.8241423 C33.1389811,16.5239099 34.0928521,15.2314346 35.2263943,13.9766364 Z M41.2909578,16.1493543 C41.3003352,16.3986887 41.310838,16.6469149 41.310838,16.8903391 C41.310838,18.2991704 41.1878062,19.6378188 40.9466191,20.8855986 C39.6360312,21.4067997 38.4432236,22.055069 37.3862011,22.8141536 C37.4417154,22.2859342 37.4814757,21.7566066 37.4814757,21.209918 C37.4814757,20.4290398 37.4162089,19.6263679 37.2984285,18.8129839 C38.4488501,17.8407646 39.790571,16.947963 41.2909578,16.1493543 Z M27.2237061,21.2102874 C27.2237061,20.6170563 27.2713434,20.007203 27.3418616,19.394764 C28.3722522,20.3607037 29.2406011,21.4034753 29.9165254,22.5075647 C29.7738726,23.2911393 29.7013256,24.0855308 29.6997195,24.881597 C29.6997195,25.2251243 29.7229755,25.5697597 29.7496073,25.9125483 C29.0750219,24.9852335 28.2853166,24.1446408 27.3988763,23.4103397 C27.2823389,22.6826068 27.2237703,21.9470136 27.2237061,21.2102874 L27.2237061,21.2102874 Z M34.3002805,39.1195112 C34.3002805,38.7730288 34.2755242,38.4320872 34.2481421,38.0870823 C34.9234936,39.0144479 35.7132464,39.8555775 36.5992482,40.5911379 C36.7144029,41.3010943 36.7751686,42.0332138 36.7751686,42.790082 C36.7751686,43.38516 36.7275313,43.9913195 36.6573882,44.6059748 C35.6258723,43.6392963 34.7578985,42.5968941 34.080849,41.4920659 C34.2226355,40.7063857 34.3002805,39.9122097 34.3002805,39.1195112 Z M23.243555,21.7252089 C24.5473911,22.284826 25.7255699,22.9696643 26.7465831,23.780832 C26.9490529,24.9052521 27.293435,26.0003443 27.7717224,27.0406477 C26.8163401,26.3943331 25.7817285,25.8697016 24.6925535,25.4792606 C24.0597654,24.3496837 23.5766409,23.0863897 23.243555,21.7252089 L23.243555,21.7252089 Z M36.2256519,36.9600911 C37.1819275,37.6064514 38.2172565,38.1313115 39.3070714,38.5222169 C39.9406097,39.6521632 40.4222339,40.9132409 40.7568201,42.2758992 C39.4507334,41.7166515 38.2710543,41.0292275 37.2541671,40.219168 C37.050882,39.0947739 36.705353,37.9998892 36.2256519,36.9600911 Z M20.2018958,25.2941991 C21.6250127,25.3813738 22.9689842,25.6288612 24.2075535,26.0451572 C24.7879698,27.0339661 25.4920183,27.9471911 26.3032188,28.7634556 C25.1779287,28.4790298 24.0278822,28.3253659 22.8602061,28.3253659 C21.8767026,27.4809536 20.9880985,26.4577594 20.2018958,25.2941991 L20.2018958,25.2941991 Z M37.6937804,35.2372832 C38.819399,35.5247702 39.9773122,35.6714625 41.1401689,35.6738953 C42.1240476,36.5201545 43.0096509,37.5389162 43.7966038,38.7083866 C42.3761126,38.6212119 41.0295154,38.3722469 39.790571,37.9537346 C39.2101367,36.9652081 38.5056706,36.0525524 37.6937804,35.2372832 L37.6937804,35.2372832 Z M22.6103917,29.0283041 C23.496768,29.7594559 24.4724521,30.3786626 25.5147655,30.8715313 C24.3632989,30.9851096 23.2307443,31.2398631 22.1433963,31.629877 C20.9220815,31.1651917 19.7288989,30.5036246 18.5841037,29.669555 C19.9502059,29.2743139 21.3024295,29.0537916 22.6103917,29.0283041 L22.6103917,29.0283041 Z M41.8528527,32.3693842 C43.0764181,32.8348083 44.2681004,33.4963754 45.4125204,34.3311837 C44.0467933,34.7271636 42.6968203,34.9480553 41.3888581,34.9709572 C40.5007464,34.240329 39.5237352,33.621408 38.4803582,33.1284687 C39.6356561,33.014329 40.763947,32.7627784 41.8528527,32.3693842 L41.8528527,32.3693842 Z M22.1433963,32.3693842 C23.2315282,32.7602224 24.3649623,33.0157198 25.5173912,33.1299463 C24.4742737,33.6219254 23.4977019,34.2403911 22.6103917,34.9709572 C21.2986786,34.9480553 19.9502059,34.7271636 18.5844788,34.3311837 C19.729274,33.4963754 20.9220815,32.8348083 22.1433963,32.3693842 Z M41.3888581,29.0283041 C42.6964452,29.0534222 44.0467933,29.2743139 45.4125204,29.669555 C44.2688506,30.5036246 43.076043,31.1651917 41.8528527,31.629877 C40.7654474,31.2391926 39.6325583,30.9844205 38.4807333,30.8715313 C39.5247738,30.3796658 40.501822,29.7603933 41.3888581,29.0283041 L41.3888581,29.0283041 Z M26.3062196,35.2387607 C25.4932,36.0528855 24.7881598,36.9651355 24.2079286,37.9537346 C22.9693593,38.3722469 21.6253878,38.6212119 20.2030211,38.7083866 C20.9884736,37.5418712 21.8770777,36.5201545 22.8605812,35.6738953 C24.0282573,35.6735259 25.1783038,35.5206009 26.3062196,35.2387607 L26.3062196,35.2387607 Z M43.7962287,25.2941991 C43.0092758,26.4577594 42.1236725,27.4809536 41.1397939,28.3257353 C39.9683668,28.3257353 38.8175702,28.4793991 37.6934053,28.763825 C38.5049592,27.9475896 39.2093838,27.0343673 39.7901959,26.0455266 C41.0291403,25.6288612 42.3757375,25.3813738 43.7962287,25.2941991 L43.7962287,25.2941991 Z M31.9975619,38.477152 C32.311633,39.5758004 32.7621515,40.632092 33.3389077,41.6220892 C33.0883431,42.8883382 32.6318504,44.1586505 31.9975619,45.415665 C31.3651488,44.1590199 30.9097814,42.8883382 30.6569662,41.6220892 C31.2362817,40.6334309 31.6866992,39.576785 31.9975619,38.477152 Z M29.7496073,38.0870823 C29.7229755,38.4320872 29.6997195,38.7730288 29.6997195,39.1195112 C29.6997195,39.914426 29.7751139,40.7067551 29.9165254,41.4924353 C29.2406011,42.5968941 28.3722522,43.6374494 27.3418616,44.6063442 C27.2694679,43.9916889 27.2237061,43.3855294 27.2237061,42.791929 C27.2237061,42.037277 27.2848469,41.3044188 27.3988763,40.5915072 C28.2843954,39.8554239 29.0739768,39.0142187 29.7496073,38.0870823 L29.7496073,38.0870823 Z M27.7717224,36.9600911 C27.2936598,38.0000931 26.9492848,39.0947907 26.7465831,40.2187986 C25.7278205,41.0288581 24.5488915,41.7166515 23.243555,42.2755298 C23.5770159,40.9128715 24.0597654,39.6488387 24.6921785,38.5218475 C25.7813847,38.131054 26.8160918,37.6063138 27.7717224,36.9600911 L27.7717224,36.9600911 Z M31.9975619,18.5865513 C32.6318504,19.8409801 33.0883431,21.1131393 33.3404081,22.3793884 C32.7619731,23.3684884 32.3108858,24.4246837 31.9975619,25.5235867 C31.6870528,24.4240672 31.2366154,23.3676229 30.6569662,22.3793884 C30.9097814,21.1131393 31.3655239,19.8409801 31.9975619,18.5865513 Z M36.6570131,19.394764 C36.7275313,20.007203 36.7747935,20.6166869 36.7747935,21.2102874 C36.7747935,21.9645699 36.7140278,22.6985363 36.6003735,23.4103397 C35.7138032,24.1449594 34.923639,24.9855041 34.2481421,25.9125483 C34.2751491,25.5697597 34.3002805,25.2251243 34.3002805,24.881597 C34.3002805,24.0863128 34.2226355,23.294353 34.0804739,22.5075647 C34.7575234,21.4034753 35.6254972,20.3607037 36.6570131,19.394764 Z M40.7568201,21.7252089 C40.4218588,23.0863897 39.9406097,24.3493143 39.3070714,25.47963 C38.2171473,25.8699732 37.181779,26.3946051 36.2256519,27.041017 C36.7053573,26.0009635 37.0508852,24.905834 37.2541671,23.7812014 C38.2710543,22.9696643 39.4503583,22.284826 40.7568201,21.7252089 L40.7568201,21.7252089 Z" id="Shape" fill="#FFFFFF" fill-rule="nonzero"></path>
    </g>
</svg>