<?xml version="1.0" encoding="UTF-8"?>
<svg width="64px" height="64px" viewBox="0 0 64 64" version="1.1" xmlns="http://www.w3.org/2000/svg" xmlns:xlink="http://www.w3.org/1999/xlink">
    <title>Bijenkorf</title>
    <g id="Bijenkorf" stroke="none" stroke-width="1" fill="none" fill-rule="evenodd">
        <circle id="Oval" fill="#F2CD02" cx="32" cy="32" r="32"></circle>
        <path d="M31.9282443,11 L15.0056578,21.499057 L15,42.5066008 L31.9282443,53 L48.7678491,42.5594073 L48.7678491,21.4537943 L31.9282443,11 Z M30.4383476,48.4643018 L17.9137854,40.6923215 L17.9194432,23.3227661 L30.4383476,15.5507858 L30.4383476,17.5970364 C27.7471037,17.9949708 24.2241581,21.1709026 24.2241581,25.5010328 L24.2166143,32.5450382 L19.5319264,32.5469241 L19.5319264,40.3245622 L30.4383476,40.3245622 L30.4383476,48.4643018 L30.4383476,48.4643018 Z M33.3389313,48.4925909 L33.3464751,37.1769196 L22.436282,37.1882353 L22.4325101,35.683251 L27.1303996,35.685137 L27.1303996,25.6160754 C27.1247418,23.0285586 29.0710373,20.5202515 32.1922766,20.5202515 L33.3408172,20.5202515 L33.3464751,15.5074091 L45.8578357,23.2699596 L45.8616075,40.7356982 L33.3389313,48.4925909 Z" id="Shape" fill="#000000" fill-rule="nonzero"></path>
    </g>
</svg>