<?xml version="1.0" encoding="UTF-8"?>
<svg width="64px" height="64px" viewBox="0 0 64 64" version="1.1" xmlns="http://www.w3.org/2000/svg" xmlns:xlink="http://www.w3.org/1999/xlink">
    <title>Deutsche post</title>
    <g id="Deutsche-post" stroke="none" stroke-width="1" fill="none" fill-rule="evenodd">
        <circle id="Oval" fill="#F9C100" cx="32" cy="32" r="32"></circle>
        <rect id="Rectangle" fill="#F9C100" x="0" y="0" width="64" height="64"></rect>
        <path d="M30.5790875,41.51859 C15.9605894,41.5055875 10.3070664,28.795435 11.0670147,19.1513127 L15.3620112,17.7930184 C14.6621993,23.267293 16.3532178,27.221671 17.5329603,29.0345877 C16.1391413,21.281397 21.9832899,15.00002 29.3129714,15.00002 C35.9031371,14.9886629 41.3532642,19.814439 41.329349,26.7134135 C42.2984978,24.0804121 42.9625529,20.0605573 43.099311,17.2606134 L53,19.7266723 C52.2112605,31.3364903 43.4947256,41.51859 30.5790875,41.51859 L30.5790875,41.51859 Z M44.7993848,48.229493 L39.1765104,42.5358016 L44.7441243,42.5358016 L50.3739642,48.229493 L44.7993848,48.229493 Z M37.2795421,48.229493 L31.6427365,42.5358016 L37.2263712,42.5358016 L42.8545859,48.229493 L37.2795421,48.229493 Z M24.7224008,48.229493 L19.1408558,48.229493 L24.7704635,42.5358016 L30.3510798,42.5358016 L24.7224008,48.229493 Z M11.6163693,48.229493 L17.2520139,42.5358016 L22.8254324,42.5358016 L17.1972178,48.229493 L11.6163693,48.229493 Z M29.3296889,19.0435779 C24.9627144,19.0435779 21.4209328,22.5902355 21.4209328,26.9583709 C21.4209328,31.3255775 24.9629466,34.8720029 29.3296889,34.8720029 C33.7089693,34.8720029 37.2502865,31.3253453 37.2502865,26.9583709 C37.2502865,22.5902355 33.7089693,19.0435779 29.3296889,19.0435779 Z" id="Shape" fill="#34312F" fill-rule="nonzero"></path>
    </g>
</svg>