<?xml version="1.0" encoding="UTF-8"?>
<svg width="2500px" height="2500px" viewBox="0 0 2500 2500" version="1.1" xmlns="http://www.w3.org/2000/svg" xmlns:xlink="http://www.w3.org/1999/xlink">
    <title>dribbble-5</title>
    <g id="Page-1" stroke="none" stroke-width="1" fill="none" fill-rule="evenodd">
        <g id="dribbble-5">
            <circle id="Oval" fill="#E84C88" cx="1250" cy="1250" r="1250"></circle>
            <path d="M1250,2129.80769 C766.826923,2129.80769 370.192308,1735.57692 370.192308,1250 C370.192308,764.423077 766.826923,370.192308 1250,370.192308 C1733.17308,370.192308 2129.80769,766.826923 2129.80769,1250 C2129.80769,1733.17308 1735.57692,2129.80769 1250,2129.80769 Z M1992.78846,1370.19231 C1966.34615,1362.98077 1757.21154,1300.48077 1524.03846,1338.94231 C1620.19231,1610.57692 1661.05769,1826.92308 1668.26923,1875 C1838.94231,1757.21154 1956.73077,1579.32692 1992.78846,1370.19231 Z M1543.26923,1942.30769 C1531.25,1875 1487.98077,1644.23077 1382.21154,1370.19231 L1377.40385,1370.19231 C956.730769,1519.23077 802.884615,1812.5 788.461538,1838.94231 C918.269231,1937.5 1076.92308,2000 1250,2000 C1355.76923,2000 1454.32692,1980.76923 1543.26923,1942.30769 Z M692.307692,1754.80769 C706.730769,1728.36538 915.865385,1384.61538 1302.88462,1259.61538 C1314.90385,1254.80769 1322.11538,1252.40385 1334.13462,1252.40385 C1314.90385,1209.13462 1295.67308,1165.86538 1271.63462,1122.59615 C896.634615,1235.57692 533.653846,1230.76923 497.596154,1228.36538 L497.596154,1252.40385 C500,1444.71154 569.711538,1620.19231 692.307692,1754.80769 Z M514.423077,1098.55769 C550.480769,1098.55769 858.173077,1098.55769 1209.13462,1009.61538 C1084.13462,786.057692 951.923077,603.365385 932.692308,576.923077 C718.75,673.076923 562.5,862.980769 514.423077,1098.55769 Z M1074.51923,524.038462 C1093.75,550.480769 1230.76923,737.980769 1355.76923,961.538462 C1620.19231,860.576923 1735.57692,711.538462 1750,692.307692 C1617.78846,574.519231 1442.30769,504.807692 1254.80769,504.807692 C1187.5,500 1129.80769,507.211538 1074.51923,524.038462 Z M1831.73077,776.442308 C1814.90385,795.673077 1692.30769,959.134615 1413.46154,1074.51923 C1430.28846,1110.57692 1449.51923,1144.23077 1463.94231,1182.69231 C1468.75,1194.71154 1475.96154,1209.13462 1480.76923,1221.15385 C1730.76923,1189.90385 1980.76923,1240.38462 2004.80769,1245.19231 C2000,1067.30769 1937.5,906.25 1831.73077,776.442308 Z" id="SVGID_3_" fill="#FFFFFF" fill-rule="nonzero"></path>
        </g>
    </g>
</svg>