<?xml version="1.0" encoding="UTF-8"?>
<svg width="64px" height="64px" viewBox="0 0 64 64" version="1.1" xmlns="http://www.w3.org/2000/svg" xmlns:xlink="http://www.w3.org/1999/xlink">
    <title>HolidayInn</title>
    <g id="HolidayInn" stroke="none" stroke-width="1" fill="none" fill-rule="evenodd">
        <circle id="Oval" fill="#61A439" cx="32" cy="32" r="32"></circle>
        <g id="holiday-inn" transform="translate(14.000000, 13.000000)" fill-rule="nonzero">
            <path d="M17.4328767,7.01917808 C13.8082192,15.3041096 11.5643836,25.0849315 10.3561644,37.9150685 C6.09863014,38.7780822 6.21369863,34.5205479 6.55890411,31.8164384 C7.70958904,22.6684932 9.20547945,16.2821918 11.8520548,9.89589041 C13.060274,7.07671233 15.0164384,6.73150685 17.4328767,7.01917808 Z" id="Shape" fill="#56874B"></path>
            <path d="M21.1726027,41.8273973 L16.8,41.8273973 C16.7424658,41.1945205 16.8,40.4465753 16.9150685,39.6986301 C17.6054795,34.1178082 18.0082192,28.2493151 19.3890411,22.8410959 C20.5972603,18.1808219 21.5178082,13.4054795 23.7041096,8.97534247 C25.0273973,6.27123288 26.8684932,4.94794521 29.860274,5.46575342 C25.5452055,15.1315068 22.7835616,27.1561644 21.1726027,41.8273973 L21.1726027,41.8273973 Z" id="Shape_1_" fill="#56874B"></path>
            <path d="M39.9287671,9.2630137 L39.9287671,12.2547945 C32.9671233,17.030137 26.0630137,20.0794521 17.8356164,22.6684932 C12.9452055,24.2219178 4.02739726,25.5452055 0.575342466,24.9123288 L0.575342466,23.0136986 C7.24931507,21.9780822 14.4410959,20.769863 21.9205479,17.8356164 C26.9835616,15.8794521 32.2767123,13.1178082 38.260274,8.86027397 L39.9287671,9.2630137 Z" id="Shape_2_" fill="#56874B"></path>
            <path d="M16.9726027,3.16438356 C15.3041096,6.84657534 13.8082192,10.8739726 12.6,15.2465753 C13.1753425,15.0164384 13.7506849,14.7287671 14.3260274,14.4986301 C16.2821918,13.6931507 18.1808219,13.0027397 20.0219178,12.4273973 C20.9424658,9.14794521 22.0356164,5.8109589 23.3589041,3.04931507 C24.6821918,0.345205479 26.0054795,0.115068493 28.939726,0.690410959 C27.6164384,3.85479452 26.2931507,7.24931507 25.1424658,10.9315068 C29.860274,9.72328767 34.6356164,8.97534247 39.9863014,8.68767123 L39.9863014,12.2547945 C33.7726027,12.5424658 28.5945205,13.4054795 23.9917808,14.6136986 C21.9780822,21.690411 20.4821918,29.630137 19.5616438,38.7205479 C15.2465753,39.5835616 15.1315068,37.1671233 15.4767123,34.4630137 C16.1671233,28.8821918 17.2027397,23.4164384 18.5835616,17.9506849 C18.7561644,17.3753425 18.8712329,16.7424658 19.0438356,16.109589 C16.4547945,17.030137 13.9808219,18.0082192 11.6219178,19.1013699 C10.5863014,23.6465753 9.78082192,28.6520548 9.32054795,34.1753425 C5.17808219,35.2109589 5.35068493,31.7013699 5.69589041,28.9972603 C6.04109589,26.3506849 6.44383562,23.8191781 6.90410959,21.460274 C4.66027397,22.6109589 2.5890411,23.7616438 0.517808219,24.969863 C-0.517808219,23.0136986 1.20821918,21.5178082 2.70410959,20.5972603 C4.02739726,19.7917808 5.75342466,18.7561644 7.70958904,17.7205479 C8.74520548,13.3479452 10.0684932,9.37808219 11.5068493,5.8109589 C12.7150685,2.99178082 14.5561644,2.81917808 16.9726027,3.16438356 L16.9726027,3.16438356 Z" id="Shape_5_" fill="#FFFFFF"></path>
        </g>
    </g>
</svg>