<?xml version="1.0" encoding="UTF-8"?>
<svg width="64px" height="64px" viewBox="0 0 64 64" version="1.1" xmlns="http://www.w3.org/2000/svg" xmlns:xlink="http://www.w3.org/1999/xlink">
    <title>Honda</title>
    <g id="Honda" stroke="none" stroke-width="1" fill="none" fill-rule="evenodd">
        <circle id="Oval" fill="#CC2229" cx="32" cy="32" r="32"></circle>
        <g id="honda" transform="translate(13.000000, 16.000000)" fill="#FFFFFF" fill-rule="nonzero">
            <path d="M27.3218098,27.9450851 C26.8265054,27.9659547 26.3618098,27.9576069 25.8678967,27.9576069 C24.7896359,27.9576069 24.9760707,28.1398678 24.7339837,27.0977808 L23.9103315,23.5722156 C23.0741576,21.567346 23.5792011,20.4765634 21.0011141,20.5057808 L16.7451141,20.5544764 C14.175375,20.5836938 14.381288,22.3409112 13.8887663,23.5207373 L12.7924185,26.8932591 C12.4585054,27.9228243 12.6407663,27.7572591 11.5360707,27.8045634 C11.0365924,27.825433 10.4508533,27.8435199 9.90267935,27.8198678 C9.14720109,27.7878678 9.36424457,27.7516938 9.30163587,26.8223025 C9.04980978,23.0796938 8.98441848,19.6292591 8.78963587,16.5781286 C8.39867935,10.4341286 8.10094022,6.18230253 8.031375,4.22334601 C8.00633152,3.4845634 7.84215761,3.53743297 8.56285326,3.5165634 C8.81467935,3.50821558 9.13050544,3.49430253 9.49920109,3.46786775 C10.3687663,3.40386775 10.1948533,3.27865036 10.3715489,4.17882427 L12.2957228,13.9499547 C13.0219837,16.1301286 13.2445924,18.5217808 16.7576359,18.5217808 L20.7548533,18.5217808 C24.2358967,18.5217808 24.991375,14.5217808 25.1165924,13.9499547 L27.2397228,4.21499819 C27.3858098,3.54438949 27.2063315,3.51378079 27.8838967,3.49430253 C28.0870272,3.48873732 28.3305054,3.48178079 28.6324185,3.47760688 C29.3545054,3.46786775 29.2487663,3.36908514 29.2348533,4.08004166 C29.1958967,6.03899819 28.9899837,10.5023025 28.6769402,16.8981286 C28.529462,19.9075199 28.4598967,23.2911721 28.2122446,26.9461286 L28.145462,27.8810851 C27.8718308,27.9129444 27.597078,27.9342934 27.3218098,27.9450851 L27.3218098,27.9450851 Z M36.3485924,6.3311721 C36.4877228,3.28004166 36.6129402,2.1085634 30.1906793,1.84978079 C22.3771141,1.53395471 14.3506793,1.22647645 6.55520109,1.89986775 C1.39346196,2.34508514 1.43520109,3.76978079 1.52424457,6.82369384 C1.61050544,9.74960688 1.6619837,12.6657808 1.84702718,15.5875199 C2.00702718,18.1224764 2.28667935,20.6212591 2.58580978,23.1381286 C3.00876631,26.6845634 3.31067935,29.2751721 8.38059239,29.2988243 L29.521462,29.3393585 C35.1158967,29.3669982 35.2967663,26.2741286 35.3788533,23.5958678 C35.4595489,20.927346 35.6891141,18.2421286 35.8630272,15.5736069 C36.0605924,12.4960417 36.2080707,9.42543297 36.3485924,6.3311721 Z M36.8731141,23.6362156 C36.7729402,26.9920417 36.5670272,30.8682156 29.5158967,30.8336654 L8.37502718,30.7930851 C1.983375,30.7624764 1.61746196,27.6250851 1.10128805,23.313433 C0.797983697,20.7701286 0.512766306,18.2407373 0.349983697,15.6807373 C0.163548915,12.7409112 0.113461958,9.80665036 0.0285923929,6.86404166 C-0.0896684767,2.84595471 -0.145320651,0.971867751 6.42580978,0.404215577 C14.2811141,-0.27334964 22.3757228,0.0369112293 30.2491141,0.354128621 C38.1767663,0.674128621 38.0278967,2.3325634 37.8442446,6.3951721 C37.7065054,9.43238949 37.5645924,12.447346 37.3712011,15.4678678 C37.1986793,18.1836938 36.9565924,20.9203895 36.8731141,23.6362156 L36.8731141,23.6362156 Z" id="Shape"></path>
        </g>
    </g>
</svg>