<?xml version="1.0" encoding="UTF-8"?>
<svg width="64px" height="64px" viewBox="0 0 64 64" version="1.1" xmlns="http://www.w3.org/2000/svg" xmlns:xlink="http://www.w3.org/1999/xlink">
    <title>ING</title>
    <g id="ING" stroke="none" stroke-width="1" fill="none" fill-rule="evenodd">
        <circle id="Oval" fill="#FF5811" cx="32" cy="32" r="32"></circle>
        <g id="ing" transform="translate(7.000000, 14.000000)" fill="#FFFFFF" fill-rule="nonzero">
            <path d="M25.4416,11.1728 C25.6016,11.1728 25.4416,10.936 25.4416,10.8576 C25.1216,10.384 24.8832,9.5136 24.8048,9.5136 C24.5664,9.432 24.4048,9.5136 24.088,9.352 C23.928,9.192 23.4512,8.952 23.2896,8.8704 C23.2112,8.8704 22.9712,8.7888 22.6528,8.7104 L22.256,8.7104 C22.3344,8.9504 22.5744,9.192 22.6528,9.352 C22.6528,9.432 22.6528,9.6736 22.7328,9.8304 C22.8912,9.8304 23.1328,9.9104 23.2896,9.9888 C23.368,9.9888 23.848,10.0672 24.0064,10.2256 C24.1664,10.2256 24.7232,10.8576 24.8048,10.936 C25.0416,11.0944 25.2816,11.2512 25.4416,11.1728 Z M48.1904,20.6096 C48.0371814,20.4629906 47.8358657,20.3771187 47.624,20.368 C47.624,20.1296 47.5424,19.8096 47.624,19.4912 C47.7872,19.4912 48.1088,19.5712 48.1088,19.4912 C48.1088,19.0128 48.0272,18.536 47.9488,18.2976 C47.7372414,18.2051834 47.5203165,18.1255731 47.2992,18.0592 C47.2946022,17.8375794 47.2399023,17.6198737 47.1392,17.4224 C47.3792,17.344 47.5424,17.344 47.7056,17.344 C47.7056,17.344 47.5424,16.624 47.4624,16.3024 C47.2992,16.224 47.0592,16.224 46.896,16.224 C46.8144,16.0784 46.7328,15.9344 46.6528,15.7088 C46.816,15.6288 46.9776,15.6288 47.1408,15.5472 C47.0353011,15.2592501 46.8990461,14.9835215 46.7344,14.7248 L46.1776,14.7248 C46.096,14.5568 46.0176,14.4 46.0176,14.2432 C46.096,14.1664 46.2544,14.0896 46.336,14.0096 C46.2490512,13.7755562 46.1138596,13.5624114 45.9392,13.384 C45.7792,13.384 45.6208,13.4624 45.4608,13.384 C45.3824,13.384 45.1424,13.0688 45.224,13.0688 C45.3024,12.9104 45.4608,12.832 45.5392,12.7536 C45.3024,12.4384 45.224,12.2 44.9824,12.0432 C44.8256,12.0432 44.664,12.0432 44.5072,12.1216 C44.5072,12.1216 44.3472,11.8848 44.2672,11.8064 C44.0304,11.8064 44.4304,11.4112 44.4304,11.4112 C44.1864399,11.1029725 43.9201202,10.8131225 43.6336,10.544 C43.4736,10.544 43.3152,10.7024 43.2368,10.7024 C43.2368,10.7024 42.9184,10.4656 42.9184,10.3856 C42.9184,10.2272 43.2368,10.1488 43.2368,10.1488 C43.2368,10.1488 42.6768,9.5152 42.2832,9.2736 C42.1232,9.3536 42.0432,9.3536 41.8832,9.3536 C41.6464,9.1136 41.3264,8.9536 41.3264,8.9536 C41.3264,8.9536 41.5664,8.792 41.5664,8.7136 C41.1664,8.4736 41.0096,8.312 40.6912,8.0704 C40.3728,7.9104 40.2128,7.6704 40.0544,7.432 C39.4912,6.5568 38.7664,5.2816 37.008,5.0432 C37.008,5.0432 37.408,5.6032 37.648,6 C37.648,6.08 37.648,6.08 37.328,6.08 L36.768,6.08 C36.608,5.8416 36.528,5.76 36.448,5.6032 C36.288,5.2832 36.2096,5.2048 36.048,5.0432 C35.7312,4.8048 34.1392,5.6816 32.8816,6 C33.2032,6.3984 33.4992,6.6368 33.5664,6.7968 C33.8992,7.1936 34.4576,7.912 34.8544,8.4736 C34.936,8.392 35.0144,8.312 35.1744,8.2336 C36.208,8.072 36.208,7.832 36.208,7.832 C36.208,7.832 35.4128,7.1952 35.9696,7.1952 C35.9696,7.1952 36.368,7.2768 36.5264,7.1152 C36.9264,7.0368 37.4064,6.9552 37.6464,7.1152 C37.9648,7.3536 38.1248,7.672 38.3632,7.9136 C38.2016,7.9136 38.0432,7.8336 37.8832,7.8336 C37.4048,7.7552 36.9248,7.8336 36.5248,7.9136 C36.5248,7.9136 37.1632,8.4768 37.3248,8.7168 C37.1632,8.6368 36.6848,8.7168 36.6848,8.7168 C36.4464,8.7952 36.128,8.8768 36.0464,8.8768 C35.808,8.9568 35.5696,8.8768 35.4112,8.9568 C35.7296,9.1168 37.1632,9.6784 37.8816,9.6784 C38.5216,9.6784 38.9216,9.5984 39.4864,9.3568 C39.568,9.2768 39.7296,9.1968 39.8112,9.2768 C40.1296,9.3568 40.2864,9.4368 40.448,9.5968 C42.5136,10.8624 44.8192,13.8592 45.5328,15.4688 C46.248,16.9472 46.6448,18.6208 46.6448,20.2128 C46.7264,22.384 46.0112,24.448 44.5792,26.28 C43.7856,27.32 42.2768,28.2144 40.6848,28.3776 C41.16,28.9488 41.4,29.8464 41.6384,30.6432 C41.6384,30.6432 42.1952,30.5648 42.5136,30.4144 C42.5136,29.7616 42.1168,29.0304 42.1168,28.8672 C42.1168,28.8672 42.592,28.5392 42.992,28.5392 C43.0704,28.7856 43.3072,29.192 43.6256,29.7616 C43.944,29.5984 44.1824,29.4368 44.4224,29.1936 C44.4224,28.7872 44.1824,28.296 44.0224,27.8064 C44.5792,27.5632 44.8976,27.4816 44.8976,27.4816 C45.0576,27.7248 45.4544,27.9728 45.5312,28.216 C45.5312,28.216 45.9312,27.8064 46.088,27.4 C45.9312,27.0816 45.6912,26.8368 45.5312,26.5184 L46.168,25.8032 C46.168,25.8032 46.5648,26.1216 46.7248,26.2816 C46.968,25.96 47.2128,25.6448 47.2912,25.248 C46.888,24.848 46.7248,24.848 46.6448,24.6112 C46.808,24.3744 46.888,24.0544 47.0512,23.816 C47.2912,23.896 47.4544,24.0544 47.6176,24.1344 C47.7808,23.816 47.9424,23.3408 47.9424,23.0224 C47.7792,22.8624 47.536,22.784 47.3744,22.6256 L47.5376,21.8288 C47.5376,21.8288 47.944,21.9104 48.104,21.9104 C48.1904,21.4176 48.1904,20.9328 48.1904,20.6096 L48.1904,20.6096 Z M22.7328,6.0752 C22.8128,5.8368 22.6528,5.5984 22.6528,5.3584 C22.4944,4.8 22.256,4.2432 22.1776,3.6048 L22.1776,3.288 C21.8576,3.128 21.5408,3.0496 21.1424,2.8896 C21.1424,2.8896 21.1424,3.3664 21.3024,3.6048 C21.4624,4.0048 21.7008,4.6416 21.7008,4.96 C21.7008,5.1984 21.7792,5.4368 21.8592,5.6768 C22.256,5.9152 22.7328,6.0752 22.7328,6.0752 Z M24.6448,9.1104 C24.6448,8.4688 24.4064,7.9872 24.2464,7.6656 C24.2464,7.5872 24.1664,7.5072 24.008,7.4272 C23.7696,7.1888 23.5312,6.9488 23.4512,6.9488 C23.2128,6.7104 23.0528,6.472 22.8144,6.232 C22.576,6.232 22.4176,6.4704 22.2576,6.552 C22.1792,6.7104 21.8592,6.8704 22.0192,6.9488 C22.0976,7.1088 22.2576,7.1088 22.4176,7.1872 C22.576,7.3472 22.7344,7.4256 22.9744,7.5856 C23.2928,7.9056 23.4528,8.3056 23.8512,8.6272 C24.0096,8.7072 24.0896,8.7872 24.168,8.7872 C24.2464,8.7888 24.5664,9.0304 24.6448,9.1104 L24.6448,9.1104 Z M37.8112,25.1632 C37.8112,25.0816 37.8112,24.4448 37.6512,24.4448 C37.5712,24.3664 37.4912,24.128 37.4112,24.048 C37.3328,24.2848 37.4112,24.4448 37.4112,24.6848 C37.4112,24.8416 37.0928,25 37.1712,25.0816 C37.4112,25.1632 37.5712,25.7184 37.7328,25.8752 C37.9696,26.1936 37.888,25.3184 37.8112,25.1632 Z M21.0624,2.5712 C20.3456,2.0944 19.5488,1.616 18.7536,1.2976 C18.2768,1.6944 17.9584,2.0144 17.72,2.0144 C17.4816,2.0144 17.64,1.5376 17.64,1.2176 C17.4,1.2176 17.2416,1.2176 17.0032,1.1392 C16.8432,1.696 16.7648,2.4112 16.3664,2.5728 C16.2064,2.6512 16.128,2.6512 16.048,2.6512 L16.048,2.016 C16.048,1.936 16.3664,1.3792 16.2864,1.2992 C16.2864,1.2992 15.5696,1.4576 15.4112,1.5376 C15.3312,1.616 14.8544,1.856 14.7744,1.856 C14.7744,1.856 14.536,1.776 14.456,1.776 C14.2176,1.616 14.056,1.616 13.8192,1.4576 C13.5008,2.4128 13.4224,2.6512 13.4224,2.4928 C13.4224,2.4928 12.3072,1.776 11.9088,1.2976 C10.8752,1.456 10.8752,1.616 9.9984,1.9328 C9.68,2.2528 9.2032,2.6496 8.8864,3.1264 C8.7264,3.4464 8.5664,3.6032 8.408,3.9248 L9.2032,4.2432 C9.2816,4.1648 9.68,3.6048 9.76,3.4464 C10.3184,3.1264 11.2736,2.5712 11.592,2.2528 C11.6704,2.4112 12.6256,2.9696 13.0256,3.208 C13.344,3.4464 13.6624,3.5264 13.9808,3.6864 C14.1408,3.448 14.2976,3.208 14.4576,2.6512 C14.696,2.8112 15.0144,2.8112 15.2528,2.8896 C15.2528,3.208 15.2528,3.5264 15.3328,3.8448 C15.3328,4.0048 15.4912,3.9264 15.8112,3.7664 C16.288,3.6048 16.7664,3.528 17.0048,3.448 C17.5616,3.128 17.88,2.4928 18.3584,2.4928 C18.7552,2.4928 19.472,2.7312 19.632,2.8896 C19.8704,2.9696 20.0304,3.0496 20.2672,3.0496 C20.5856,3.0496 20.824,2.7312 21.0624,2.5712 L21.0624,2.5712 Z M31.5952,16.5408 C31.5952,16.3008 31.5136,16.0032 31.2752,15.8576 C30.5536,16.0752 29.7552,16.1472 29.1968,16.1472 C28.3984,16.1472 27.6,16.0032 26.4832,15.544 C26.4016,15.7056 26.4832,16.0032 26.4832,16.0032 C26.9616,16.3808 26.9616,16.1472 27.3616,16.5408 C27.5216,16.7008 27.6,17.0208 27.6816,17.5792 C27.76,17.8976 27.92,17.9792 28.08,18.456 C28.3184,18.296 28.7168,18.376 28.7168,18.376 C28.7168,17.9792 28.4784,17.5792 28.4784,17.5024 L28.0784,16.7008 C28.1568,16.7008 28.3984,17.0208 28.7968,17.0208 C28.8768,17.0208 29.1152,17.1008 29.2752,17.0208 C29.2752,17.0208 29.5152,17.1824 29.5152,17.3424 C29.6752,17.5808 29.6752,17.7424 29.7536,17.9792 C29.9136,17.9792 29.992,17.9792 30.0736,17.8992 C30.3936,17.8992 30.552,17.8192 30.552,17.8192 C30.4736,17.6592 30.392,17.5024 30.392,17.3424 C30.3104,17.1824 30.152,16.7824 30.152,16.7824 L31.5952,16.5408 L31.5952,16.5408 Z M26.3216,15.464 C26.3216,15.464 26.1616,14.4752 26.0016,13.384 C25.8416,12.4368 25.7616,12.12 25.52,11.7264 C25.3967934,11.78992 25.2580693,11.8171099 25.12,11.8048 C24.8816,11.8832 24.7216,11.9632 24.7216,11.9632 C24.8816,12.5952 25.12,13.384 25.2,14.3216 C25.2,14.5552 25.12,14.808 25.2,15.0608 L26.3216,15.464 L26.3216,15.464 Z M39.9008,24.6848 C39.9008,20.6112 38.4512,17.1824 36.6912,15.3024 C35.6576,14.2416 34.5424,13.6208 33.504,13.6208 C32.5648,13.6208 31.8368,14.32 31.8368,15.0592 C31.8368,17.8992 32.968,19.7296 33.6384,21.336 C33.8384,21.7392 33.9056,22.0608 33.9056,22.4576 C33.9856,23.4912 33.2096,25.3952 32.6448,26.4336 C32.5648,26.352 32.16,26.2736 31.8368,26.2736 C31.0352,26.2736 30.7168,26.8304 30.5536,27.3136 C30.3136,27.3136 30.1536,27.1504 29.9152,27.1504 C28.9584,27.072 28.1584,27.9632 28.1584,28.9408 C28.1584,30 28.3984,30.5568 28.7968,31.2352 L29.5952,31.2352 C29.5168,31.0096 29.2752,29.8384 29.1968,29.5136 C29.1152,29.0224 29.2752,28.6944 29.5168,28.4512 C29.8336,27.9632 30.6352,28.1264 30.6352,28.1264 C30.3952,28.5328 30.0752,29.1856 30.0752,29.8384 C30.1536,30.2448 30.2352,30.8608 30.4752,31.2352 L31.1136,31.2352 C31.2752,30.7856 31.1136,30.4064 31.1136,30.0016 C31.1136,29.7552 31.1136,29.5136 31.1952,29.2672 C31.1952,29.104 31.5952,29.592 31.5952,29.592 C31.5952,29.592 31.9168,29.1856 31.9168,28.8608 C31.9168,28.6144 31.4352,28.6944 31.3536,28.4512 C31.2736,28.208 31.5136,27.6384 31.5136,27.6384 C31.9968,27.3136 32.4016,27.392 32.5632,27.392 C32.8032,27.392 32.8864,27.4736 33.208,27.4736 C33.4384,27.4736 33.504,26.992 33.504,26.752 C33.5712,26.8304 33.7712,26.992 33.8384,26.992 C34.064,27.0736 34.144,27.0736 34.3824,27.152 C34.7024,27.3152 35.0192,27.4736 35.3376,27.7984 L35.3376,27.7168 C35.2592,27.392 35.4192,26.992 35.1808,26.8288 C35.1808,26.8288 34.7808,26.5104 34.464,26.3504 C34.304,26.1904 34.0656,26.1904 33.9872,26.032 C33.9072,25.9504 33.9072,25.872 33.9072,25.7168 C33.9072,25.5536 33.9872,25.3168 34.0672,25.3168 C34.2272,25.2384 34.3056,25.3168 34.624,25.4768 C34.944,25.6368 35.2608,25.8736 35.4992,26.0336 C35.4992,26.0336 35.5776,26.1936 35.5776,26.1152 C35.8976,25.952 35.8976,25.8752 35.8976,25.3968 C35.5776,25 35.8976,24.9216 35.4208,24.6032 C35.2608,24.6032 34.3856,24.2848 34.3856,24.2848 C34.3856,24.1264 34.624,23.7328 34.624,23.7328 C34.704,23.6512 34.8624,23.6512 34.944,23.8096 C35.4208,24.128 35.7392,24.128 36.216,24.2848 C36.2944,24.048 36.2944,23.888 36.1376,23.7328 C35.9776,23.4944 35.7392,23.2544 35.5792,23.176 C35.2608,23.096 35.1024,23.016 34.8624,22.9376 C34.8624,22.6992 34.784,22.4592 34.704,22.1408 C34.704,21.9824 34.8624,22.0624 35.0224,22.0624 C35.3392,21.984 36.6944,22.4592 36.6944,22.4592 C36.6944,22.1408 36.6144,21.9024 36.456,21.7408 C36.296,21.5792 36.1376,21.4176 35.7392,21.256 C35.1824,21.096 34.7056,21.176 34.3056,20.9328 C33.9872,20.6112 33.9072,20.5312 33.84,20.208 C34.0656,20.1296 34.464,20.048 34.704,20.048 C35.1008,20.048 35.3392,19.9696 35.8176,20.128 C35.9776,20.2064 36.5344,20.6912 36.7744,20.6912 C36.7744,20.6912 36.6144,20.048 36.4544,19.8096 C36.216,19.8096 35.8176,19.3328 35.6592,19.2528 C34.8608,18.936 34.704,19.0928 34.2256,19.1744 C33.9872,19.2528 33.7728,19.1744 33.5728,19.1744 C33.5056,19.0128 33.7056,18.7744 33.6384,18.6144 C33.6384,18.536 33.3712,18.456 33.3712,18.2976 C33.3712,18.2976 34.5424,18.1376 35.0208,18.2192 C35.1808,18.2976 35.6576,18.616 35.816,18.616 C35.816,18.616 35.976,18.0592 35.7376,17.5824 C35.3376,17.504 34.9424,17.5824 34.6224,17.504 C34.304,17.4224 33.9872,17.504 33.7728,17.504 C33.5728,17.504 33.3728,17.4224 33.1296,17.4224 C32.9779013,17.212461 32.8936396,16.9613499 32.888,16.7024 C32.888,16.7024 34.7824,16.624 34.9424,16.5424 C34.8608,16.4624 34.704,16.3824 34.6224,16.2224 C34.304,15.7072 34.0656,15.6256 33.7056,15.6256 C33.5056,15.6256 32.968,15.8592 32.6448,15.7872 C32.6448,15.1408 32.968,14.5536 33.4384,14.5536 C34.304,14.5536 35.2576,14.9792 36.0528,15.8576 C38.048,17.8976 39.088,21.8208 39.088,24.6016 C39.088,25.8736 38.928,27.0736 38.7696,28.0448 C39.0096,28.1264 39.1696,28.1264 39.4128,28.1264 C39.656,27.1536 39.9008,25.8752 39.9008,24.6848 L39.9008,24.6848 Z M22.256,11.488 C22.256,11.488 22.0176,10.4608 21.8576,9.9872 C21.7792,9.6704 21.6192,9.512 21.4608,9.2704 C21.3808,9.3504 21.3008,9.512 21.3008,9.5904 C21.1408,9.8288 20.9008,9.9872 21.0624,10.224 C21.1408,10.5408 21.1408,10.856 21.3808,11.0928 C21.6192,11.3312 21.936,11.2512 22.256,11.488 L22.256,11.488 Z M31.2736,19.2528 C31.1936,19.0144 30.952,18.936 30.7936,18.776 C30.7936,18.776 29.7536,18.3776 29.5936,18.3776 C29.4336,18.4576 29.9936,18.776 30.0736,18.936 C30.3936,19.2528 31.1952,19.9696 31.1952,19.9696 L31.2736,19.2528 L31.2736,19.2528 Z M24.2464,14.1648 C24.2464,13.9312 24.1664,13.7744 24.088,13.5424 C24.0064,13.1472 23.8496,12.9104 23.768,12.6736 C23.768,12.4384 23.768,12.2784 23.6896,12.1216 C23.6096,12.1216 23.5296,12.1216 23.4512,12.0432 C23.2128,12.0432 22.8912,11.9648 22.8912,11.9648 C22.8912,12.2016 22.9728,12.5968 22.9728,12.832 C22.9728,12.912 23.2912,13.6224 23.3696,13.6992 C23.4512,13.856 23.5296,13.9328 23.6896,14.0096 C23.928,14.008 24.088,14.1648 24.2464,14.1648 L24.2464,14.1648 Z M37.4912,26.9936 C37.4912,26.912 37.2512,26.7536 37.1696,26.7536 C37.1696,26.672 37.0912,26.3536 37.0096,26.2752 C36.8496,26.1936 36.8496,26.1152 36.6896,26.1152 C36.6896,26.1936 36.6896,26.2752 36.6096,26.4336 C36.6096,26.5936 36.4496,26.6704 36.5296,26.8304 C36.6096,26.9936 36.6896,26.9936 36.8496,27.0736 C36.9296,27.152 37.1696,27.7984 37.2496,27.8832 C37.3312,27.8 37.3312,27.3152 37.4912,26.9936 L37.4912,26.9936 Z M31.9168,21.6592 C31.9968,21.4176 31.8352,20.9312 31.7536,20.7712 C31.5136,20.7712 31.3536,20.6096 31.1936,20.6096 C31.032,20.6096 30.952,20.208 30.7136,20.288 C30.792,20.4496 30.952,21.2544 31.032,21.4176 C31.112,21.4976 31.432,22.0624 31.432,22.6176 C31.7536,22.3792 31.8352,21.9024 31.9168,21.6592 Z M40.5344,30.8624 C40.6944,30.7872 40.5344,30.6368 40.5344,30.56 C40.456,30.56 40.1376,29.8416 39.9008,29.5168 C39.9008,29.5168 39.8192,29.7568 39.7376,29.92 C39.5744,30.3296 39.4944,30.4864 39.4944,30.7136 C39.7376,30.864 39.8192,30.7888 40.1376,30.7888 C40.2944,30.7872 40.456,30.8624 40.5344,30.8624 Z M26.4816,17.6608 C26.4816,17.6608 25.52,17.1024 25.36,16.8608 C25.1216,16.8608 25.1216,16.8608 24.8832,17.1008 C24.7232,17.1008 24.6448,17.1808 24.5648,17.3408 C24.8032,17.5008 24.8832,17.5792 25.1216,17.7408 C25.2016,17.8192 25.2816,17.8192 25.5216,17.7408 L26.1616,17.7408 C26.3216,17.7408 26.4816,17.8192 26.4816,17.6608 L26.4816,17.6608 Z M24.5664,16.2224 C24.7248,16.0048 24.4064,16.0048 24.3248,15.9328 C24.2464,15.7872 24.0896,15.464 24.008,15.384 C23.9476203,15.2391925 23.8673843,15.1034913 23.7696,14.9808 C23.6912,14.8928 23.3712,14.9808 23.2128,14.9808 C23.0528,14.9808 22.9744,14.9808 22.8144,15.0608 C22.9744,15.2224 23.1344,15.7888 23.2128,15.7888 C23.2912,15.9344 23.2912,16.0064 23.4512,16.0784 C23.8496,16.1488 24.1664,16.0768 24.5664,16.2224 L24.5664,16.2224 Z M30.3936,22.2192 C30.3984291,21.9830178 30.3125363,21.7539702 30.1536,21.5792 C30.0711883,21.3438496 30.0174669,21.0994174 29.9936,20.8512 C29.9136,20.6912 29.5936,20.208 29.4336,19.9696 C29.2736,19.8096 29.2736,19.4128 29.1952,19.1744 L28.2384,19.3328 C28.7152,19.9696 29.1136,20.6112 29.3552,21.256 C29.4336,21.4976 30.1536,23.8896 30.1536,23.8896 C30.3936,23.8096 30.0752,22.6192 30.1536,22.5408 C30.2336,22.3792 30.2336,22.3008 30.3936,22.2192 Z M27.28,19.4128 C27.28,18.696 27.12,18.696 26.8016,18.3776 C26.8016,18.3776 26.5632,18.8544 26.4016,19.0944 C26.7216,19.4144 26.8016,19.8112 26.8016,19.8112 C27.1216,19.4912 27.1216,19.5712 27.28,19.4128 L27.28,19.4128 Z M38.528,30.712 C38.528,30.6368 38.528,30.4832 38.368,30.4096 L37.9696,30.4096 C37.8112,30.328 37.7312,30.328 37.6512,30.4096 C37.4112,30.6384 37.4112,31.0128 37.2512,31.2384 L38.208,31.2384 C38.368,31.088 38.528,31.0128 38.528,30.712 L38.528,30.712 Z M28.2384,21.4176 L28.2384,21.176 C28.2384,21.176 28.0784,20.8512 28.0784,20.7728 C27.9984,20.6112 27.9184,20.3696 27.68,20.2896 C27.68,20.2096 27.6,20.6112 27.52,20.7728 C27.4384,20.9328 27.4384,20.8512 27.2816,21.176 C27.44,21.4176 27.52,21.5792 27.6816,21.8208 C27.6816,21.9024 27.92,22.2192 27.92,22.2192 C27.92,22.2192 28.2384,21.5792 28.2384,21.4176 L28.2384,21.4176 Z M21.7792,12.9104 C20.504,12.2784 19.5488,12.0416 18.7536,12.0416 C18.7536,11.9632 18.5936,11.8832 18.7536,11.8048 C18.898406,11.7145548 19.0325854,11.6082848 19.1536,11.488 C19.392,11.1728 19.5504,10.856 19.6304,10.5408 C19.8688,10.0672 20.1072,10.224 20.2656,9.1904 C20.0288,9.1904 19.9488,9.3504 19.7088,9.4304 C19.7872,9.1904 19.8688,8.9488 19.8688,8.7088 C19.9488,8.2272 20.1072,7.9056 20.1072,7.3472 C20.3456,7.2688 20.744,7.0304 20.824,6.7104 C20.824,6.632 20.824,6.3936 20.9024,6.0752 C20.9024,5.5984 20.9824,5.2 20.824,4.88 C20.824,4.8 20.2656,4.0048 19.8688,3.7664 C19.3104,3.528 19.072,3.6048 18.6752,3.6864 C18.1984,3.6864 17.56,4.1648 17.56,5.0384 C17.0832,5.0384 16.1264,5.12 15.5696,5.5984 C15.1662615,5.40405982 14.7366364,5.26983564 14.2944,5.2 L13.5792,5.2 C13.5025692,4.85131421 13.305402,4.54083256 13.0224,4.3232 C12.624,4.0848 12.1472,3.7664 11.5888,3.7664 C11.3504,3.7664 11.112,3.6864 10.872,3.8448 C10.6336,4.0048 10.2352,4.1648 10.1552,4.4816 C9.9952,4.88 9.8384,5.1984 9.8384,5.5968 C9.8384,5.9936 10.0768,6.312 10.3168,6.7088 C10.3952,6.8688 10.4752,6.8688 10.6336,6.9472 C10.7136,6.9472 11.032,7.1072 11.112,7.1856 C11.1904,7.2672 11.032,7.5056 11.032,7.984 C11.032,8.384 11.032,8.384 11.112,8.7072 C11.112,9.0288 11.1904,9.3488 11.272,9.5888 C11.0336,9.5888 10.8736,9.3488 10.7136,9.5104 C10.7136,9.6704 10.8736,10.0656 11.032,10.3808 C11.4288,10.776 11.8272,11.1712 12.0656,11.6448 C12.0656,11.7248 12.0656,11.8816 12.1456,11.8816 C11.5888,11.96 11.032,11.96 10.4736,12.1184 C9.95620213,12.2954607 9.45109708,12.5065893 8.9616,12.7504 C8.9616,13.0656 9.0416,13.3008 9.0416,13.3008 C9.1216,13.3008 9.8384,12.9072 10.4752,12.7504 C11.5104,12.4352 12.0672,12.5136 12.0672,12.5136 C12.1472,12.672 12.2272,12.9088 12.1472,12.9872 C11.1824006,13.3810501 10.2508606,13.8519032 9.3616,14.3952 C9.44,14.552 9.3616,14.8048 9.52,14.976 C10.3820943,14.4469764 11.2877836,13.992526 12.2272,13.6176 C12.5456,13.5392 12.5456,13.6176 12.704,13.6176 C12.7824,13.6944 12.9424,14.0048 13.1008,14.0048 C13.3392,14.0048 13.5792,13.7712 13.8176,13.6944 C14.2944,13.5392 14.6944,13.3808 15.1712,13.2992 C15.3312,13.2224 15.3312,13.064 15.3312,12.9056 C15.4112,12.7472 15.4112,12.7472 15.4112,12.5104 C15.4112,12.432 15.0928,12.352 14.9328,12.0368 C14.7728,11.8 14.9328,11.5632 14.8544,11.5632 C14.616,11.7216 14.296,11.88 14.2176,11.5632 C14.1376,11.3264 14.1376,11.0112 14.3776,10.9312 C15.1698134,10.6160781 16.0525866,10.6160781 16.8448,10.9312 C17.0048,10.9312 17.0832,11.0896 17.0832,11.248 C17.1616,11.4064 17.0832,11.5632 16.9232,11.7216 C16.6848,11.8 16.4464,11.4848 16.4464,11.7216 C16.4464,11.9584 16.288,12.2736 15.8896,12.432 C15.8112,12.5104 15.8896,12.7472 15.968,12.984 C15.968,13.0624 15.968,13.2208 16.0496,13.2208 C16.368,13.2976 16.8448,13.3792 17.0832,13.5376 C17.4,13.6928 17.9584,14.16 18.0384,14.0832 C18.2768,13.9264 18.3584,13.6928 18.5152,13.5376 C19.392,13.9264 20.1088,14.16 21.2208,14.8864 C21.3808,14.8864 21.3808,14.5488 21.3808,14.392 C20.8028917,14.0702309 20.2193337,13.7587154 19.6304,13.4576 C19.3104,13.3792 19.1536,13.2208 18.832,13.1424 L18.832,12.5104 C19.3904,12.6688 20.504,12.7472 21.6192,13.3792 C21.6992,13.1472 21.8576,12.9888 21.7792,12.9104 L21.7792,12.9104 Z M23.6896,16.9408 C23.3696,16.7808 22.9728,16.6208 22.6544,16.4608 C22.3657804,16.3224818 22.0980838,16.1441969 21.8592,15.9312 C21.7008,15.9312 21.6208,16.0032 21.5408,16.0032 C21.3808,16.0752 21.3024,16.1472 21.1424,16.2208 C21.3808,16.5408 21.6192,16.7808 21.8592,17.0208 C21.9376,17.1824 22.1792,17.1824 22.336,17.1824 L23.1344,17.1824 C23.3696,17.1008 23.5296,17.1008 23.6896,16.9408 L23.6896,16.9408 Z M25.0416,18.9344 C25.2016,18.9344 25.2016,18.6144 25.0416,18.6144 C24.4848,18.456 24.008,18.2976 23.6896,17.8192 C23.6096,17.8992 23.1328,18.0576 22.9728,18.2192 C22.9728,18.2192 23.1328,18.616 23.5296,19.0144 C23.768,19.2528 24.2464,19.0944 24.6448,18.936 L25.0416,18.9344 L25.0416,18.9344 Z M36.4512,30.2464 L35.9744,30.2464 C35.7265728,30.2508702 35.5062702,30.4053353 35.4176,30.6368 C35.3580347,30.8364285 35.2477897,31.0172303 35.0976,31.1616 C35.1792,31.2368 35.336,31.2368 35.4176,31.2368 L36.2128,31.2368 C36.2912,31.1616 36.2912,30.936 36.3728,30.7872 C36.3728,30.6368 36.4512,30.4848 36.4512,30.2464 L36.4512,30.2464 Z M29.1136,23.5712 C29.0352,23.4112 28.9552,23.1744 28.8752,23.0144 C28.8752,22.936 28.8752,22.776 28.7952,22.5392 C28.7952,22.5392 28.2368,22.936 28.1568,23.0144 C28.4768,23.4112 28.3168,23.6496 28.3968,23.9664 C28.3968,24.1264 28.7152,24.2064 28.7952,24.4432 C28.7952,24.5232 28.6352,25.24 28.6352,25.24 C29.1136,24.6032 29.1136,23.808 29.1136,23.5712 L29.1136,23.5712 Z M35.0192,28.944 C34.5424,28.0464 33.704,27.8 33.288,27.8 C32.8864,27.8 32.4016,28.2912 32.0768,29.84 C31.9968,30.408 31.9152,30.8624 31.9968,31.1616 L32.7232,31.2368 C32.8864,31.0112 32.8864,30.6368 33.048,30.328 C33.048,30.1648 33.208,30.1648 33.3696,30.1648 C33.5024,30.2464 33.7696,30.6368 33.904,30.7872 C33.984,30.6368 34.1424,30.328 34.1424,30.0848 C34.1424,30.0032 33.904,29.8416 33.8368,29.8416 C33.6368,29.6752 33.5024,29.5168 33.2064,29.5168 C33.1264,29.1888 33.5696,28.7824 33.5696,28.7824 C34.0624,28.7824 34.6192,29.432 34.6192,29.432 C34.7792,29.3504 34.8592,29.1056 35.0192,28.944 L35.0192,28.944 Z M27.52,23.9664 C27.4384,23.888 27.36,23.2544 27.2816,22.776 C27.2816,22.6176 27.0416,22.3792 26.8816,22.2192 C26.8032,22.4576 26.5632,22.6176 26.5632,22.936 C26.5632,22.936 26.9616,23.3328 27.04,23.5712 C27.1216,23.7312 27.04,24.4432 27.1216,24.6032 C27.36,24.3664 27.52,24.2848 27.52,23.9664 Z M20.9824,17.7408 L20.9824,17.5792 C20.7456,17.3408 20.4256,16.7808 20.4256,16.6208 C20.2656,16.5408 20.2656,16.5408 20.0288,16.5408 C19.9488,16.4608 19.7888,16.4608 19.7088,16.4608 C19.7088,16.4608 19.7872,16.8608 19.9472,17.2608 C20.0272,17.4208 20.1856,17.5792 20.264,17.5792 C20.4256,17.6608 20.744,17.7408 20.9824,17.7408 L20.9824,17.7408 Z M23.5296,20.048 C23.3696,19.8896 23.2112,19.7296 22.9728,19.5712 C22.6528,19.4912 22.4944,19.3328 22.336,19.0128 C22.2590526,18.8365867 22.1518323,18.6752146 22.0192,18.536 C21.8592,18.536 21.7808,18.6144 21.6192,18.696 C21.4608,18.8544 21.1424,18.8544 20.9824,19.0928 C21.0624,19.2528 21.1424,19.4128 21.3024,19.5712 C21.3808,19.6512 21.4624,19.8096 21.7792,19.9696 C22.336,20.288 22.4944,20.368 22.4944,20.368 C22.9728,20.4496 23.5296,20.048 23.5296,20.048 L23.5296,20.048 Z M9.28,6.9488 C9.28,6.7904 9.2016,6.6304 9.1216,6.472 C9.0416,6.3136 8.8832,5.9152 8.8832,5.8368 C8.8832,5.2 8.9616,5.0384 9.0416,4.4832 C8.7232,4.4048 8.3248,4.4048 8.1664,4.7216 C8.0064,4.96 8.0064,5.2 8.0064,5.4384 C8.0064,5.8368 8.0848,6.1552 8.1664,6.632 C7.8464,6.8704 7.6896,7.032 7.3696,7.1888 C7.4496,7.6656 7.5296,8.5488 7.5296,8.5488 C7.6896,8.3088 7.6896,8.3088 7.8464,8.1488 C8.1664,7.9072 8.3232,7.7488 8.7232,7.4288 C8.8016,7.2704 8.8832,7.3488 9.1216,7.1904 C9.2,7.1088 9.28,7.0304 9.28,6.9488 L9.28,6.9488 Z M19.7088,18.9344 C19.4973036,18.6250106 19.3608896,18.2705533 19.3104,17.8992 C19.152,17.7408 19.4704,17.1824 19.072,17.1824 C18.8638283,17.0932733 18.6518967,17.0131984 18.4368,16.9424 C18.3584,17.1824 18.3584,17.6608 18.4368,17.9008 C18.4368,18.1392 18.8336,18.856 18.9936,18.936 C19.0736,19.0144 19.472,19.0144 19.552,19.0144 C19.6304,18.9344 19.7088,18.9344 19.7088,18.9344 L19.7088,18.9344 Z M17.72,14.3984 C17.0832,14.0096 16.2864,13.9312 15.488,13.9312 C14.7728,13.9312 13.9776,14.008 13.1824,14.5536 C13.2608,14.8912 13.3408,15.1408 13.4992,15.4624 C13.5792,15.4624 13.6592,15.6256 13.7376,15.6256 C13.8976,15.4624 14.0544,15.2208 14.2944,15.1408 L14.2944,15.464 C14.2944,15.7072 14.2944,15.8592 14.376,16.0768 C14.376,16.3008 14.6144,16.3008 14.9328,16.3008 C15.2512,16.3008 15.3312,15.7872 15.3312,15.7056 C15.3312,15.7056 15.4112,16.0032 15.888,16.2208 C15.888,16.2208 16.4448,16.2208 16.4448,16.1472 C16.5248,15.7856 16.6048,15.7056 16.5248,15.3808 C16.5248,15.3808 17.0016,15.704 17.2416,16.0016 C17.4,15.856 17.56,15.5424 17.56,15.4608 C17.72,15.1408 17.72,14.7232 17.72,14.3984 L17.72,14.3984 Z M21.8576,21.256 C21.5392,21.0144 21.4608,20.8512 21.3008,20.6912 C21.0624,20.5296 20.9008,20.4496 20.584,20.128 L19.5488,20.128 C19.7088,20.528 19.7872,20.7712 20.3456,21.1744 C20.664,21.4176 21.3008,21.336 21.8576,21.256 Z M25.6016,26.912 C25.6016,26.912 25.4416,25.952 25.4416,24.7616 C25.4416,24.6832 25.2016,24.2048 25.0416,24.1264 C24.9632,24.0464 24.8048,23.9664 24.6448,23.888 L24.6448,24.2064 C24.6448,24.5232 24.7232,24.6032 24.7232,24.7632 C24.7232,24.9232 24.9616,26.0352 24.9616,26.3536 C25.3616,26.4336 25.3616,26.7536 25.6016,26.912 L25.6016,26.912 Z M9.44,8.3072 C9.3616,8.1472 8.7232,8.3072 8.5632,8.3072 C8.1664,8.3872 7.4496,8.6288 7.4496,8.7888 C7.3696,9.0304 7.3696,9.592 7.3696,9.672 C7.4496,9.9088 7.4496,10.1456 7.5296,10.3824 C7.768,10.1456 7.8464,10.0672 8.0064,9.9872 C8.0848,9.9088 8.9616,9.2704 9.04,9.1888 C9.2,9.0288 9.2784,9.1088 9.36,8.9488 C9.3616,8.4688 9.5184,8.4688 9.44,8.3072 L9.44,8.3072 Z M17.9584,19.5712 C17.9584,19.5712 17.7984,18.8544 17.72,18.536 L17.72,17.2624 C17.4,17.3424 17.3216,17.4224 17.2416,17.4224 C17.0032,17.5824 16.8432,17.6608 16.8432,17.8208 C16.8432,18.1392 16.9216,18.4576 16.9216,18.616 C16.9216,18.8544 16.9216,19.0144 17.0016,19.0944 C17.24,19.176 17.32,19.176 17.6384,19.3328 C17.64,19.4128 17.9584,19.5712 17.9584,19.5712 L17.9584,19.5712 Z M16.2864,18.6144 C16.3664,18.376 16.2864,17.9792 16.2064,17.5808 C15.888,17.6608 15.2512,17.7424 15.2512,17.9808 C15.1728,18.2192 15.2512,18.4576 15.2512,18.616 C15.3312,18.776 15.3312,18.936 15.3312,19.176 C15.3312,19.3344 15.2512,19.4928 15.3312,19.7328 C15.4112,19.5728 15.8096,19.4144 15.888,19.2544 C16.048,19.0128 16.2048,18.8544 16.2864,18.6144 L16.2864,18.6144 Z M19.3104,21.9824 C19.072,21.8208 18.6752,21.336 18.4352,21.0944 C18.2752,20.9312 18.3568,20.6912 18.1968,20.528 C18.0368,20.528 17.8768,20.528 17.72,20.608 C17.4816,20.608 17.3216,20.608 17.0832,20.6896 C17.1616,20.8496 17.1616,21.0112 17.3216,21.0928 C17.64,21.4144 17.64,21.4944 17.9584,21.9808 C18.0368,22.1392 18.4352,22.2176122 18.7536,22.2176122 C18.9136,22.2192 19.2304,22.0624 19.3104,21.9824 L19.3104,21.9824 Z M9.28,10.1456 C8.4848,10.3824 7.928,10.5408 7.768,10.6992 C7.3696,10.9344 7.2112,11.0944 6.8128,11.3312 C6.8128,11.8048 6.8128,11.8048 6.8912,12.0416 L6.9728,12.9888 C7.1312,12.752 7.608,12.2784 7.8464,11.9616 C8.0064,11.8032 8.3232,11.408 9.1216,11.0144 C9.2,10.6992 9.28,10.4624 9.28,10.1456 L9.28,10.1456 Z M14.6144,19.7312 C14.8528,19.4928 14.6144,19.0944 14.6144,18.8544 C14.5328,18.616 14.6144,18.3776 14.5328,18.1376 C14.4569772,17.9888181 14.302963,17.8962854 14.136,17.8992 C13.976,17.8992 13.5776,17.6608 13.5776,17.8192 C13.1808,17.8192 13.4976,18.2192 13.4976,18.456 C13.4976,18.7744 14.2928,19.5696 14.2928,19.5696 C14.4544,19.6512 14.4544,19.5712 14.6144,19.7312 L14.6144,19.7312 Z M12.7824,17.4208 C12.7824,17.4208 12.704,17.0208 12.6224,16.8608 C12.5413935,16.6645491 12.403112,16.497273 12.2256,16.3808 C12.1456,16.3808 11.9872,16.2208 11.9056,16.3008 C11.9056,16.3008 11.8256,16.9408 11.7472,17.0208 C11.9056,17.2608 12.064,17.4208 12.144,17.6592 C12.224,17.8976 12.304,18.2176 12.464,18.456 C12.544,18.1376 12.7824,17.9792 12.7824,17.4208 L12.7824,17.4208 Z M11.1904,17.8992 C11.1904,17.8992 10.952,17.1824 10.872,16.7824 C10.7936,16.5424 10.9504,16.2224 10.7936,16.0048 C10.7136,15.8592 10.4736,15.7872 10.3168,15.7072 C10.1552,15.7072 9.9968,16.0048 9.9968,16.3024 C9.9968,16.464 10.0784,17.0224 10.1568,17.264 C10.1568,17.344 10.3184,17.424 10.4752,17.504 C10.7136,17.6608 10.952,17.7408 11.1904,17.8992 L11.1904,17.8992 Z M18.0368,24.4432 C17.9584,24.1264 17.8768,23.7312 17.7984,23.4112 C17.7984,23.4112 17.56,23.2528 17.3216,23.2528 C17.16,23.2528 17.0032,23.1744 16.8432,23.2528 C16.9216,23.4912 16.9216,23.6496 17.0032,23.8864 C17.2416,24.2048 17.56,24.3632 17.8784,24.6016 C17.9584,24.6032 18.0368,24.4432 18.0368,24.4432 L18.0368,24.4432 Z M8.1664,15.1408 C8.0864,14.5536 7.928,14.088 7.928,13.9312 C7.928,13.3024 8.008,13.1472 8.0864,12.752 C7.768,12.9104 7.3696,13.1472 7.0528,13.3024 L7.0528,13.6976 C7.0528,13.8544 7.1312,14.7232 7.1312,14.9792 C7.2128,15.2208 7.2128,15.464 7.2912,15.7072 C7.3696,15.8592 7.4512,16.0048 7.4512,16.1488 C7.4512,16.1488 7.6096,16.0768 7.6896,15.9328 C7.928,15.7056 8.0064,15.464 8.1664,15.1408 L8.1664,15.1408 Z M15.808,20.7712 C15.808,20.7712 15.3296,20.8496 15.2496,20.9312 C15.1712,20.9312 14.8528,20.9312 14.6928,21.0944 C14.6928,21.336 14.6928,21.5776 14.6144,21.9008 C14.4544,22.1392 14.0544,22.2992 14.0544,22.696 C14.0544,22.696 14.3744,22.7744 14.4544,22.7744 C14.6144,22.696 14.7728,22.5376 14.8528,22.456 C15.0912,22.3776 15.2496,22.2176 15.488,22.1376 C15.6496,22.0624 15.808,20.7712 15.808,20.7712 L15.808,20.7712 Z M24.1664,30.1664 C23.928,30.248 23.4512,30.0032 23.4512,30.4848 C23.2912,30.7872 23.1328,31.088 23.1328,31.2384 L24.0064,31.2384 C24.2464,30.9376 24.3248,30.6368 24.1664,30.1664 Z M25.0416,28.0464 C24.8832,27.3152 24.4848,26.9936 24.088,26.752 C23.928,26.6704 22.416,25.952 22.1776,25.952 C21.7008,26.0336 20.9024,26.0336 20.4256,26.2736 C20.3472,26.0336 20.2656,25.6368 20.4256,25.3952 C20.504,25.2384 21.3024,25.2384 21.5408,25.2384 C22.4176,25.3168 22.8928,25.4752 23.1344,25.4752 C23.3712,25.7152 23.6096,25.7152 23.6912,25.7152 C23.6912,25.7152 23.6112,25.2368 23.5312,25.0784 C23.2128,24.9184 22.8928,24.8384 22.6544,24.76 C22.2576,24.6 22.0976,24.5216 21.4624,24.4416 C21.2224,24.4416 21.2224,24.5216 20.7456,24.5216 C20.7456,24.4416 20.824,24.3632 20.904,24.2832 C21.064,24.0464 21.2224,23.8864 21.3824,23.7312 L22.6544,23.7312 C22.9744,23.808 23.1344,23.888 23.5312,24.0464 C23.7696,24.0464 23.5312,23.6496 23.5312,23.4112 C23.4404067,23.3134977 23.3324947,23.2332416 23.2128,23.1744 C22.8928,23.0944 22.6544,23.0144 22.336,22.8544 C22.0976,22.776 21.6192,22.6176 21.2208,22.696 C20.824,22.8544 20.824,22.7744 20.504,22.9344 C20.1072,23.4912 19.8688,24.1248 19.6304,24.76 C19.6304,24.92 19.2304,25.872 19.2304,26.032 C19.2304,26.1136 19.152,26.272 19.152,26.272 C18.832,26.1904 17.3984,25.9504 17.0016,26.3504 C16.8416,26.5104 16.6816,26.6688 16.4432,27.1504 C16.1248,26.9104 15.8864,26.8288 15.568,26.8288 C15.112708,26.8453579 14.6951287,27.0861999 14.4528,27.472 C14.4528,27.5536 13.816,28.7776 13.896,29.9152 C13.976,30.5552 14.2144,30.784 14.5312,31.2336 L15.408,31.2336 C15.328,30.9328 15.1696,30.5552 15.008,30.08 C14.9296,29.6704 15.0896,28.9392 15.168,28.2864 C15.168,28.2864 15.4064,28.1232 15.6464,28.0432 C15.8064,27.88 15.8848,27.9616 16.1232,27.9616 C16.2016,27.9616 16.2016,28.0432 16.2016,28.0432 C15.8832,28.368 15.8832,28.6928 15.8048,29.184 C15.8048,29.4272 16.1232,30.6336 16.44,31.2336 L17.0768,31.2336 C17.0768,31.2336 16.9168,29.6704 16.9968,29.512 C16.9968,29.184 17.0768,28.9408 17.1552,28.6928 C17.3168,28.7776 17.4752,28.7776 17.6352,28.8592 C17.872,29.0224 17.872,29.184 17.872,29.4272 C17.872,29.8368 17.872,29.9152 17.792,30.1616 L17.792,30.5552 C17.792,30.9328 17.872,31.2336 17.872,31.2336 L18.5088,31.2336 C18.5088,30.5552 18.5888,30.6336 18.6688,30.2432 C18.7472,29.9152 18.6688,29.752 18.7472,29.512 C18.7472,29.3456 18.8256,29.184 18.9072,29.1024 C19.1456,28.9392 19.304,28.9392 19.624,29.0208 C19.624,29.264 19.624,29.512 19.544,29.752 C19.464,30.1616 19.3856,30.5552 19.2256,30.9328 C19.2256,31.008 19.1472,31.1584 19.0656,31.2336 L20.0224,31.2336 C20.0224,31.2336 20.1808,30.9328 20.2592,30.5552 C20.4976,30.784 20.8176,30.6336 20.976,30.6336 C21.2144,30.5552 21.3744,30.3248 21.5344,30.1616 C21.2144,29.9152 20.4992,29.9984 20.4992,29.6704 C20.3408,29.1024 20.4992,29.0208 20.4992,28.6928 C20.4992,28.2048 20.024,28.0432 19.544,27.9616 C19.3856,27.88 19.0656,27.88 18.9088,27.88 C18.7488,27.9616 18.5888,28.2048 18.4304,28.2048 C18.4304,28.2048 18.1104,27.9616 17.872,27.88 C17.7136,27.88 17.2368,27.7136 17.2368,27.7136 C17.3168,27.5504 17.3952,27.3888 17.4752,27.3104 C17.5536,27.2288 17.792,26.9888 17.872,26.9888 C18.032,26.9072 18.2704,26.9888 18.4304,27.0704 C18.8272,27.1488 19.1472,27.2304 19.2256,27.2304 C19.3056,27.2304 19.544,27.3904 19.544,27.3904 C19.7824,27.2304 19.7824,27.072 19.9424,27.072 C20.4192,26.9088 20.5792,26.8288 21.0576,26.8288 C21.456,26.8288 21.7744,27.5536 22.0128,27.7968 C22.0912,27.9632 22.648,28.6944 22.968,29.3472 C23.128,29.2656 23.2064,29.104 23.3648,29.104 C23.3648,28.9408 23.2864,28.288 23.2064,28.2064 C22.968,27.472 22.4896,27.312 22.4896,27.1504 C22.648,27.1504 22.968,27.3136 23.128,27.3136 C23.2864,27.392 23.5248,27.4736 23.7632,27.6384 C23.8448,27.7168 24.0016,27.7984 24.0832,27.8816 C24.1616,28.2064 24.1616,28.4496 24.3184,28.7792 C24.3184,28.8608 24.3184,28.9424 24.4,29.0224 C24.6448,28.5344 24.8832,28.4528 25.0416,28.0464 L25.0416,28.0464 Z M13.9776,20.4496 C13.9776,20.368 13.7392,20.368 13.5792,20.368 C13.4208,20.368 13.2608,20.4496 13.1008,20.4496 C12.9475952,20.6973461 12.8397757,20.9704166 12.7824,21.256 C12.704,21.4976 12.544,21.6592 12.4656,21.8224 C12.4656,21.8224 13.1824,21.6608 13.3392,21.6608 C13.5776,21.4992 13.7376,21.4192 13.8976,21.096 C13.9776,20.8512 14.056,20.7712 13.9776,20.4496 L13.9776,20.4496 Z M8.9616,16.3808 C8.8016,16.0032 8.7232,15.9312 8.4848,15.7056 C8.4048,15.7856 8.0064,16.0032 7.9264,16.1472 C7.78228614,16.2039283 7.64787801,16.2827379 7.528,16.3808 C7.528,16.5408 7.6064,16.6208 7.688,16.7808 C7.688,16.9408 7.7664,17.3408 7.7664,17.6592 C7.7664,17.6592 8.0048,17.5008 8.0048,17.3408 C8.4048,16.8608 8.8832,16.4624 8.9616,16.3808 L8.9616,16.3808 Z M16.048,25.24 C15.9664,25.1616 15.9664,25 15.888,24.84 C15.728,24.3648 15.8096,24.1264 15.728,23.6496 L15.0928,23.6496 C14.9328,23.7312 14.8544,23.6496 14.6944,23.7312 C14.6944,24.0464 14.7728,24.2832 15.0112,24.6832 C15.2496,25.1632 16.048,25.24 16.048,25.24 Z M12.0672,20.6912 L12.0672,20.128 C11.9888,19.968 12.0672,19.6512 12.0672,19.4112 C11.9888,19.2512 11.8288,19.3312 11.7504,19.4112 L11.272,19.4112 C11.272,19.4112 11.112,20.0464 11.112,20.528 C11.032,20.7696 10.952,20.9296 10.952,21.0112 C10.7936,21.3344 10.7136,21.4144 10.5552,21.8192 C10.7936,21.9008 11.032,21.7392 11.1904,21.7392 C11.3504,21.6576 11.5888,21.5776 11.6672,21.496 C11.7488,21.4176 11.9888,20.8512 12.0672,20.6912 L12.0672,20.6912 Z M9.5184,18.1376 C9.36,17.9792 9.28,17.7408 9.2,17.5808 C8.8832,17.5808 7.688,18.0592 7.688,18.0592 C7.9264,18.4576 8.0848,18.8544 8.2448,19.3328 C8.4048,19.2528 8.5616,19.1744 8.7216,19.0144 C8.8832,18.7744 9.3616,18.2976 9.5184,18.1376 L9.5184,18.1376 Z M9.8384,19.4128 C9.6784,19.3328 9.3616,19.4912 9.1216,19.4912 C8.8832,19.4912 8.3232,19.4912 8.3232,19.5712 C8.4048,19.7312 8.4048,19.8896 8.4848,20.048 C8.5632,20.208 8.6448,20.368 8.6448,20.7712 C8.6448,21.0128 8.7232,21.2544 8.6448,21.5776 C8.6448,21.5776 9.6784,21.0112 9.6784,20.8496 C9.7584,20.6096 9.6784,20.448 9.7584,20.2064 C9.7584,20.048 9.7584,19.6512 9.8384,19.4128 L9.8384,19.4128 Z M12.624,23.888 C11.7504,23.5712 11.8272,23.2544 11.5104,23.0944 C11.112,22.776 10.4752,22.4592 9.5184,22.1408 C9.28,22.0624 8.7232,22.1408 8.4848,22.1408 C7.8464,23.2544 7.608,24.2848 7.1296,25.4784 L6.8912,26.1936 C6.4944,25.9536 6.096,25.7968 5.6976,25.7968 C5.0624,25.7968 4.5856,26.0336 4.3456,26.672 C4.1072,26.5936 3.7872,26.4352 3.3904,26.512 C2.832,26.5936 2.3552,26.912 2.1152,27.3936 C1.8768,27.7184 1.7968,28.0464 1.8768,28.3712 C1.48,28.5344 1.2416,28.9424 1.08,29.2688 C0.92,29.9184 1.48,31.0128 1.7168,31.2368 L2.512,31.2368 C2.352,30.5584 2.0352,30.2464 2.2736,29.5152 C2.4336,29.1056 2.9888,28.944 3.1504,28.8624 C3.1504,28.5344 2.7504,28.2912 2.8304,27.9648 C2.9904,27.5552 3.4672,27.5552 3.9456,27.64 C3.8672,28.128 3.7856,28.7808 3.7072,29.4304 C3.6288,30.1648 4.024,31.2368 4.024,31.2368 L4.9008,31.2368 C4.8208,31.0112 4.7408,30.7872 4.7408,30.5584 C4.6608,30.3264 4.6608,30.1648 4.6608,29.9184 C4.7408,29.5936 4.7408,29.2688 4.7408,29.024 C5.5376,28.6144 5.2992,29.1872 5.456,29.3488 C5.456,29.3488 5.776,28.6144 5.3776,28.2896 C5.2976,28.208 4.8192,28.2896 4.8192,28.208 C4.8192,28.1264 4.8992,27.8832 4.9776,27.64 C5.1376,27.3152 5.216,27.2336 5.3776,26.9936 C5.456,26.912 5.6944,26.912 6.0144,26.9936 C6.0928,26.9936 6.4912,27.0752 6.7312,27.1536 C6.6496,27.3936 6.3328,27.8848 6.2544,28.128 C5.9344,29.1056 5.9344,30.2464 6.016,31.2368 L6.8896,31.2368 C6.8896,30.712 6.8112,30.0832 6.8896,29.5152 C7.0496,28.7808 7.2896,28.696 7.368,28.696 C7.528,28.696 7.688,28.8624 7.7664,29.024 C7.9264,29.84 7.448,30.5584 7.448,31.2368 L8.0832,31.2368 C8.0832,31.2368 8.3216,31.1616 8.4032,30.936 C8.5616,30.4832 8.8816,30.0016 8.96,29.5136 C9.04,29.104 8.8816,28.7792 8.6432,28.288 C8.4048,27.9632 8.1648,27.7168 7.608,27.3136 C7.4496,26.992 7.608,26.592 7.608,26.592 C7.608,26.6704 7.9264,26.5104 8.0848,26.5104 C8.7216,26.6704 8.8832,26.6704 9.2,26.8288 C9.4384,26.9104 9.7568,27.072 9.9952,27.232 C10.2336,27.392 10.4736,27.8816 10.712,28.4512 C10.712,28.4512 10.872,27.392 10.872,27.0736 C10.5536,26.752 10.2352,26.4336 9.7568,26.192 C9.36,25.8736 8.4848,25.6352 8.0848,25.4768 C8.0848,25.4768 8.2448,25.24 8.2448,25.08 C8.7216,24.9984 9.2784,24.9984 9.5168,25.08 C10.3152,25.3168 11.2688,25.7952 11.6656,26.1136 C11.6656,26.1136 11.8256,25.7952 11.8256,25.6352 C11.8256,25.6352 10.712,24.92 10.792,24.6816 C10.472,24.4416 10.2336,24.2032 9.9152,24.1232 C9.4384,24.0432 8.4832,23.9632 8.4832,23.9632 C8.4832,23.9632 8.7216,23.648 8.96,23.408 L9.5968,23.408 C9.9152,23.408 10.7104,23.6464 11.1888,23.8848 C11.9056,24.2032 12.304,24.44 12.3824,24.6 C12.4656,24.3664 12.544,24.0464 12.624,23.888 L12.624,23.888 Z M10.7136,30.4096 C10.6336,30.2464 10.3952,29.8416 10.0784,29.6752 C9.52,29.6752 9.6784,30.56 9.52,30.9376 C9.4416,31.0128 9.3616,31.1632 9.4416,31.2384 L10.6352,31.2384 C10.6336,31.2368 10.7136,30.56 10.7136,30.4096 L10.7136,30.4096 Z M39.4944,7.7472 L38.528,7.0304 L38.2064,6.6304 L39.0864,6.392 L39.4944,7.7472 Z M36.0528,6.3136 L35.656,6.3136 L35.1792,6.632 L34.5424,6.1552 L35.2576,5.7568 L36.0528,6.3136 Z M20.1856,6.0752 C20.1016656,6.31121119 19.8792814,6.46969185 19.6288,6.472 C19.2288,5.9952 18.8304,5.6768 18.2752,5.5168 C18.1968,5.2 18.4352,4.8816 18.5936,4.6432 C18.832,4.4048 19.152,4.3232 19.4688,4.4048 C19.8672,4.4832 19.9472,4.5632 20.1056,4.7232 C20.3456,5.0384 20.2656,5.6768 20.1856,6.0752 L20.1856,6.0752 Z M17.72,6.9488 C17.56,7.1088 17.16,7.0304 16.7632,7.0304 C16.7632,6.8704 16.7632,6.552 16.6032,6.552 C16.4432,6.392 16.2048,6.392 16.2048,6.232 C15.8864,5.9136 16.6816,6.1536 17.0816,6.232 C17.2416,6.2336 18.5936,6.552 17.72,6.9488 L17.72,6.9488 Z M19.2304,7.8256 C19.2304,7.8256 19.152,7.9872 19.0704,7.9872 C18.9904,8.1488 18.832,8.2288 18.6736,8.3072 C18.5936,8.3072 18.5136,8.4688 18.5136,8.5472 C18.3552,8.7872 18.1152,8.8688 17.7968,8.8688 C17.6384,8.8688 17.32,8.8688 17.16,8.5472 C17.16,8.5472 17.2416,9.512 17.2416,9.7504 C17.2416,9.8288 17.3216,9.8288 17.3216,9.8288 C17.64,9.9088 17.72,10.224 17.8784,10.3824 C17.8784,10.3824 17.9584,10.4608 18.0384,10.4608 C18.3584,10.6976 19.072,11.0144 18.7552,11.0144 C18.7552,11.1728 18.5168,11.5664 18.4368,11.5664 C18.1984,11.3296 17.8,11.1712 17.4816,11.0144 C17.4,10.856 17.3216,10.6992 17.2432,10.5408 C17.0832,10.3824 17.0048,10.3824 16.7648,10.224 C16.7648,9.6704 16.6848,9.6704 16.6848,9.1088 C16.6848,9.0288 16.5264,8.1456 16.5264,8.1456 C16.5264,8.064 16.7648,7.824 17.0032,7.7456 C17.0016,7.7472 18.5136,7.7472 19.2304,7.8256 L19.2304,7.8256 Z M14.9328,6.2336 C14.9328,6.5536 14.6944,6.7104 14.456,7.032 C14.296,7.2704 14.2176,7.1104 13.8192,7.1104 L13.4224,7.1104 C13.4224,6.872 13.5808,6.7936 13.8192,6.5536 C14.0576,6.3936 14.296,6.2336 14.456,6.2336 C14.6144,6.1536 14.9328,6.0752 14.9328,6.2336 Z M12.8624,5.3584 C12.8624,5.4368 12.8624,5.5168 12.784,5.5168 C12.784,5.5168 12.3072,5.8368 12.1472,5.9952 C11.7504,6.2336 11.6688,6.632 11.4304,6.632 C11.272,6.472 10.9536,6.2336 10.7952,5.9152 C10.5568,5.5984 10.6352,5.2784 10.6352,5.2 C10.7952,4.7216 11.352,4.5616 11.6688,4.4832 C11.8288,4.4832 11.9888,4.4832 12.2272,4.6432 C12.544,4.8 12.704,4.8 12.8624,5.3584 L12.8624,5.3584 Z M18.2752,12.4368 C18.2752,12.5152 18.1968,12.9104 18.1968,12.9104 C17.8768,12.8304 17.64,12.5952 17.2416,12.5952 C17.2416,12.3584 17.2416,12.3584 17.3216,12.2784 C17.7984,12.2 18.0368,12.3568 18.2752,12.4368 L18.2752,12.4368 Z M14.4544,8.1472 C14.4544,8.2272 14.376,8.7088 14.376,8.7872 C14.2944,9.2704 14.2944,9.4304 14.216,10.1456 L14.216,10.3824 C14.136,10.5408 13.816,10.6192 13.6576,10.7776 C13.5776,11.0144 13.5776,11.1728 13.3392,11.2512 C13.1008,11.3296 12.9424,11.5664 12.7824,11.488 C12.544,11.3296 12.6224,10.9344 12.7824,10.6992 C12.9424,10.4624 13.2592,10.304 13.4992,10.2256 C13.8176,10.1472 13.7376,9.5136 13.7376,9.432 C13.816,9.272 13.7376,9.032 13.7376,8.8704 C13.5776,8.9504 13.5776,8.8704 13.2592,8.9504 C12.9424,8.9504 12.7824,8.7888 12.6224,8.6288 C12.464,8.4688 12.0656,8.1472 11.9056,7.8256 C12.304,7.7472 12.6224,7.7472 13.0208,7.7472 L14.0544,7.7472 C14.2944,7.8256 14.4544,7.9872 14.4544,8.1472 L14.4544,8.1472 Z M13.8176,12.4368 C13.6928366,12.5272188 13.5600087,12.6059515 13.4208,12.672 C13.2608,12.752 13.1824,12.8304 12.944,12.9088 C12.8624,12.7504 12.784,12.4352 12.784,12.4352 C12.784,12.4352 13.1024,12.3552 13.3408,12.3552 C13.4992,12.3568 13.6592,12.3568 13.8176,12.4368 Z" id="Shape"></path>
        </g>
    </g>
</svg>