<?xml version="1.0" encoding="UTF-8"?>
<svg width="64px" height="64px" viewBox="0 0 64 64" version="1.1" xmlns="http://www.w3.org/2000/svg" xmlns:xlink="http://www.w3.org/1999/xlink">
    <title>Lufthanza</title>
    <g id="Lufthanza" stroke="none" stroke-width="1" fill="none" fill-rule="evenodd">
        <circle id="Oval" fill="#F9BA00" cx="32" cy="32" r="32"></circle>
        <path d="M55.9926795,32.0525348 C55.9926795,45.3448902 45.2884337,56 31.9417129,56 C18.7403151,56 8,45.2957522 8,32.0938317 C8,18.6132881 18.7397924,8 32.3745456,8 C45.334958,7.99947726 55.9926795,18.8960931 55.9926795,32.0525348 M10.4877426,32.0525348 C10.4877426,43.9052509 20.0895195,53.504939 31.9417129,53.504939 C43.845658,53.504939 53.4991867,43.9517752 53.4991867,32.0938317 C53.4991867,19.9990847 43.9904583,10.5008112 31.8026628,10.5008112 C20.1412713,10.5002885 10.4877426,20.2358881 10.4877426,32.0525348 Z M26.7137419,31.0865024 L26.4199593,31.6662264 C25.3174905,31.4241955 23.3038774,30.6541924 21.1914656,29.6933874 L20.9029105,30.2265871 L21.7685759,30.7028077 C24.8381335,32.2893382 25.8480765,32.6212812 27.6248862,32.6212812 C31.1738008,32.6212812 33.8633229,30.6071454 35.1142512,27.0561398 C37.3191889,26.6259208 40.1524658,26.4351189 43.5105786,26.4351189 C46.3898571,26.4351189 48.8885773,26.5767828 52.1029353,26.9630912 L51.2884988,27.9704205 C49.8002443,27.7743912 47.0600159,27.5841121 45.0918817,27.5841121 C42.7431892,27.5841121 41.2538892,27.6327273 40.4864998,27.6792516 L40.1054188,28.544917 C42.0735531,28.4492547 42.7891907,28.4492547 44.329197,28.4492547 C46.9204431,28.4492547 48.9805804,28.544917 50.6596368,28.6865809 L49.8457231,29.7425254 C46.822167,29.6526133 45.4316658,29.6008616 43.1802039,29.6008616 C41.92823,29.6008616 41.016563,29.6526133 39.5283085,29.6933874 L39.1420001,30.5585301 C40.4352708,30.4660043 42.2120804,30.4168663 44.0871661,30.4168663 C45.8639758,30.4168663 47.9716829,30.4660043 49.2226113,30.5125286 L48.4039929,31.5731778 C47.5487824,31.5193351 45.8644985,31.5193351 44.5660004,31.5193351 C42.505863,31.5193351 39.9151397,31.6144746 38.5701173,31.810504 L38.1838088,32.5752796 C40.6313001,32.3379535 42.1655562,32.2428139 44.8550783,32.2428139 C45.9110228,32.2428139 46.5806589,32.2428139 47.7855858,32.3384762 L46.8686913,33.4414678 C45.2356365,33.3452828 44.7155054,33.3452828 44.0871661,33.3452828 C39.5283085,33.3452828 36.5565042,34.0149189 33.5737222,35.696589 C36.3087232,38.4300217 40.8675808,40.3024936 44.9528316,40.3024936 C45.287911,40.3024936 45.4781901,40.3024936 46.3438555,40.2554466 L44.3710166,42.2288083 C33.5287662,39.3955313 31.6071562,38.6250055 21.6708226,32.7226937 C17.7403043,30.4660043 14.5207189,28.9312255 11.9247681,28.1606996 L12.2645523,26.9630912 C12.8928915,27.0561398 14.2321638,27.4424482 15.4841376,27.8747582 L16.0560205,26.5767828 L26.7137419,31.0865024 L26.7137419,31.0865024 Z" id="path2874" fill="#00235F" fill-rule="nonzero"></path>
    </g>
</svg>