<?xml version="1.0" encoding="UTF-8"?>
<svg width="64px" height="64px" viewBox="0 0 64 64" version="1.1" xmlns="http://www.w3.org/2000/svg" xmlns:xlink="http://www.w3.org/1999/xlink">
    <title>Shell</title>
    <g id="Shell" stroke="none" stroke-width="1" fill="none" fill-rule="evenodd">
        <circle id="Oval" fill="#FBD201" cx="32" cy="32" r="32"></circle>
        <path d="M45.2393506,52.0828808 C45.9391317,52.0828808 46.1722328,51.7996247 46.2553467,51.2328737 L47.152404,44.3332234 C47.2992863,43.4333002 47.5722726,43.217395 47.9128487,42.9436922 L53.5548037,38.7684115 C53.8879759,38.5016349 54.1963095,38.0332831 54.2670041,37.6506724 C54.5442836,36.2308684 54.683456,34.7875546 54.6825779,33.3409286 C54.6825779,21.0025703 44.6800034,11 32.3411674,11 C20.0028091,11 10,21.0028091 10,33.3409286 C10,34.8154843 10.143061,36.2563646 10.4153308,37.6506724 C10.4862643,38.0332831 10.7945978,38.501396 11.12777,38.7684115 L16.7697251,42.9436922 C17.1103011,43.217395 17.3830485,43.433539 17.5299309,44.3332234 L18.4265105,51.2328737 C18.5101021,51.7996247 18.743442,52.0828808 19.4432231,52.0828808 L25.4424725,52.0828808 L25.4424725,48.4831879 L23.7426971,48.4831879 C22.4095306,48.4831879 21.726229,48.3501578 21.5263257,46.8168491 L21.0766029,43.6840749 C20.943334,42.8173495 21.3433795,42.0841318 22.8095761,43.2176338 C24.6555173,44.6441841 28.4085411,47.2832902 28.4085411,47.2832902 C29.0084899,47.6835745 29.2750277,48.482949 28.0751301,48.482949 L25.4424725,48.482949 L25.4424725,52.0826419 L29.4082966,52.0826419 C30.4414887,52.782423 31.1747064,52.9992835 32.3079696,52.9992835 L32.3244491,49.3663928 C31.7245003,49.3663928 31.1415086,48.8832333 30.6081943,48.482949 L15.1439879,37.0516789 C13.8440192,35.985289 13.6109181,35.418538 13.6247704,33.3409286 C13.6246341,32.6099438 13.6668189,31.8795642 13.7511131,31.153456 C14.0109636,30.2525774 14.5774758,29.5193597 15.8772057,30.8859629 L27.8917062,43.5505672 C28.0584118,43.7507094 28.3751045,43.5343266 28.1250462,43.2505928 L15.4604418,28.6363936 C14.910648,28.0194876 14.6106736,27.619681 15.1279861,25.9796139 C15.5222996,25.0589122 15.9104035,24.1866936 16.5435501,23.4869125 C16.8179693,23.2358989 17.9266327,21.920406 18.7766398,23.4534759 L29.1579995,42.4340223 C29.3084644,42.7046203 29.6413977,42.5338546 29.50789,42.2505985 L19.2762788,21.7868983 C18.7432032,20.6373944 19.0467601,20.2394985 19.2762788,19.953854 C19.5762532,19.5540474 21.4092974,18.0708936 22.3758551,17.4876631 C23.2972733,16.9961446 24.0651218,16.5461829 24.4422393,18.0207387 L30.7744221,41.667368 C30.857536,42.0167809 31.2076654,41.9506241 31.141031,41.5837764 L25.5755025,16.9548264 C25.4090359,16.2882432 25.7073384,15.8163089 26.6079782,15.5189616 C27.8085923,15.0551477 29.2750277,14.6885389 30.5081232,14.7217367 C31.3079753,14.7217367 31.7746553,15.1884166 31.7746553,16.2216087 L32.1412641,41.5508174 C32.1747007,41.8842285 32.5243524,41.8507918 32.5410708,41.5508174 L32.9076796,16.2216087 C32.9076796,15.1884166 33.3741207,14.7217367 34.1742117,14.7217367 C35.407546,14.6885389 36.8737426,15.0551477 38.0743567,15.5189616 C38.9749964,15.8163089 39.273299,16.2882432 39.1065935,16.9548264 L33.5410651,41.5844929 C33.4744306,41.9511018 33.8243212,42.0172585 33.9076739,41.6680845 L40.2400955,18.0214552 C40.6169742,16.5466606 41.3843451,16.9968611 42.3060021,17.4883796 C43.2725598,18.0716101 45.1058429,19.5547639 45.4058173,19.9545705 C45.6353359,20.2402149 45.9388928,20.6378721 45.4058173,21.7876148 L35.174206,42.251315 C35.0406983,42.5345711 35.3733929,42.705098 35.5240966,42.4347388 L45.9059339,23.4541924 C46.755941,21.9211225 47.8641267,23.2366154 48.1390236,23.487629 C48.7719314,24.1874101 49.1600353,25.0596287 49.5548264,25.9803304 C50.072139,27.6203975 49.7721646,28.0202041 49.2221319,28.6371101 L36.5575275,43.2513093 C36.3074692,43.5350431 36.624162,43.7514259 36.7908675,43.5512837 L48.8058457,30.8866794 C50.1053368,29.5200762 50.6720878,30.2532939 50.9314606,31.1541725 C50.9656137,31.4484149 50.9935572,31.7450456 51.0136192,32.0447812 C51.042518,32.4725313 51.0580421,32.9055358 51.0580421,33.3416451 C51.0721333,35.4192545 50.8387933,35.9860055 49.5388246,37.0523954 L34.0748571,48.4836655 C33.5417816,48.8839498 32.9251144,49.3671093 32.3249268,49.3671093 L32.3084473,53 C33.4414717,53 34.2413238,52.7831395 35.2745159,52.0833584 L38.6074323,52.0833584 L38.6074323,48.4836655 L36.6076825,48.4836655 C35.4080237,48.4836655 35.6743226,47.6840522 36.2742714,47.2840067 C36.2742714,47.2840067 40.027534,44.6446618 41.8737141,43.2183503 C43.3399107,42.0848483 43.7399562,42.818066 43.6066873,43.6847914 L43.1564869,46.8175656 C42.9563447,48.3508743 42.2735208,48.4839044 40.9403543,48.4839044 L38.6074323,48.4839044 L38.6074323,52.0835973 L45.2393506,52.0835973 L45.2393506,52.0828808 Z" id="Path" fill="#E52217" fill-rule="nonzero"></path>
    </g>
</svg>