<?xml version="1.0" encoding="UTF-8"?>
<svg width="64px" height="64px" viewBox="0 0 64 64" version="1.1" xmlns="http://www.w3.org/2000/svg" xmlns:xlink="http://www.w3.org/1999/xlink">
    <title>Texaco</title>
    <g id="Texaco" stroke="none" stroke-width="1" fill="none" fill-rule="evenodd">
        <circle id="Oval" fill="#FFFFFF" cx="32" cy="32" r="32"></circle>
        <path d="M13.4400291,58.369885 C15.72927,59.7938435 18.1426524,61.0319939 20.2309227,61.8852559 C22.3196271,62.738946 24.0827853,63.2073196 25.983541,63.5262761 C27.8842968,63.8452325 29.9235181,64.0151999 32.1081501,63.998931 C34.2932162,63.9830902 36.624561,63.7818693 38.8217808,63.3747182 C40.9717019,62.9814251 43.0718844,62.3586891 45.0852896,61.5174927 C47.1075657,60.6687127 49.0342854,59.6136271 50.8340013,58.3694568 L51.0093622,58.1960644 L35.7356028,47.2868979 L35.7356028,32.2218787 L42.0559737,32.2218787 L42.0559737,26.074368 L21.8669009,26.074368 L21.8669009,32.2218787 L28.1868377,32.2218787 L28.1868377,47.2868979 L13.4400291,58.369885 Z M1.68520712,21.9052434 L24.6835266,21.9052434 L31.88157,1.24344979e-14 C28.2237329,0.199080195 24.5902033,0.92005019 21.2809177,2.09569366 C17.9711981,3.27176526 14.9857225,4.90293847 12.4139075,6.84150863 C9.91874675,8.71871766 7.72972695,10.9617075 5.92295046,13.4924996 C4.17364181,15.938119 2.80455023,18.6277693 1.86100207,21.4724045 L1.68520712,21.9052434 L1.68520712,21.9052434 Z M32.4935968,0 L39.6030916,21.9052434 L62.3388038,21.9052434 C61.1264698,18.9691316 59.5955346,16.1567492 57.9118096,13.7412429 C56.2280847,11.3257365 54.3928723,9.30667801 52.4743201,7.61727919 C50.5557678,5.92745225 48.5543098,4.56771311 46.4738526,3.4772674 C44.4162826,2.39841071 42.2368406,1.56277651 39.9807252,0.987694643 C37.704719,0.406242662 35.3704385,0.0751366012 33.0205476,0.000428129451 L32.4935968,0.000428129451 L32.4935968,0 L32.4935968,0 Z M1.49248378,22.5178966 C1.07361434,24.0912723 0.705096047,25.6787763 0.475477464,26.8501385 C0.246292943,28.0215007 0.15557407,28.776721 0.0939373241,29.5589136 C0.0309790536,30.3562897 -0.00029734371,31.1557918 8.89467739e-05,31.9555822 C-0.00751535164,35.1740418 0.472505368,38.3755639 1.42433611,41.4540622 C2.40136683,44.6236169 3.8468538,47.6337683 5.71416683,50.3874113 C7.60800026,53.1667782 9.9129366,55.6509043 12.5523732,57.7572317 L12.8158486,57.930196 L20.2769333,36.1114348 L1.49248378,22.5178966 Z M43.9840753,36.1075816 L51.620955,57.8398607 C53.9058552,55.7951144 55.9871805,53.5230314 57.6205543,51.3198773 C59.2552303,49.1167231 60.4419547,46.9824978 61.3608631,44.8538382 C62.2558581,42.7856557 62.9270186,40.630069 63.3631892,38.4229057 C64.0018593,35.195612 64.1612365,31.893854 63.8363163,28.6213101 C63.7330386,27.5941067 63.5805123,26.5723022 63.3792495,25.5593282 C63.164823,24.4894327 62.9187101,23.4970287 62.5927299,22.5136153 L43.9840753,36.1075816 L43.9840753,36.1075816 Z" id="Shape" fill="#CA3432" fill-rule="nonzero"></path>
    </g>
</svg>