<?xml version="1.0" encoding="UTF-8" standalone="no"?><!DOCTYPE svg PUBLIC "-//W3C//DTD SVG 1.1//EN" "http://www.w3.org/Graphics/SVG/1.1/DTD/svg11.dtd"><svg width="100%" height="100%" viewBox="0 0 1738 1804" version="1.1" xmlns="http://www.w3.org/2000/svg" xmlns:xlink="http://www.w3.org/1999/xlink" xml:space="preserve" xmlns:serif="http://www.serif.com/" style="fill-rule:evenodd;clip-rule:evenodd;stroke-linejoin:round;stroke-miterlimit:2;"><g><g><g id="Layer_1"><path d="M799.239,360.316c35.21,5.948 59.211,37.918 53.564,71.347c-5.648,33.429 -38.818,55.74 -74.028,49.792c-35.21,-5.949 -59.211,-37.918 -53.564,-71.347c5.647,-33.429 38.818,-55.74 74.028,-49.792Z" style="fill:url(#_Radial1);"/></g><g id="Layer_11" serif:id="Layer_1"><path d="M1053,0.96c35.21,5.948 59.211,37.918 53.564,71.347c-5.648,33.429 -38.819,55.74 -74.028,49.792c-35.21,-5.949 -59.211,-37.918 -53.564,-71.347c5.647,-33.429 38.818,-55.74 74.028,-49.792Z" style="fill:url(#_Radial2);"/></g><g id="Layer_12" serif:id="Layer_1"><path d="M1493.81,386.551l34.664,5.856c11.539,-9.934 21.974,-20.054 30.5,-30.139c0,0 -25.595,10.083 -65.164,24.283Z" style="fill:url(#_Radial3);fill-rule:nonzero;"/></g><g id="Layer_13" serif:id="Layer_1"></g><g id="Layer_14" serif:id="Layer_1"><path d="M1024.92,571.287c-0,-0 19.77,-449.3 690.061,-418.525c-0,0 18.011,663.456 -652.129,512.799c0,0 294.99,-143.178 369.137,-279.01c0,-0 -287.124,181.954 -407.069,184.736Z" style="fill:url(#_Radial4);fill-rule:nonzero;"/></g><g id="Layer_15" serif:id="Layer_1"><path d="M1186.3,902.472c5.414,-7.369 9.536,-16.036 11.133,-25.489c5.678,-33.61 -18.534,-65.425 -53.564,-71.342c-35.03,-5.918 -68.409,16.53 -74.028,49.787c-2.661,15.755 1.552,31.232 10.045,43.828l106.414,3.216Z" style="fill:url(#_Radial5);fill-rule:nonzero;"/></g><g id="Layer_16" serif:id="Layer_1"><path d="M630.043,885.919c-46.339,-64.72 -87.066,-135.7 -96.777,-194.955c-0,0 86.027,108.16 177.153,197.372l156.642,4.498c-5.138,-140.225 -82.588,-384.49 -524.595,-516.057c0,0 -110.897,292.747 40.853,501.314l246.724,7.828Z" style="fill:url(#_Radial6);fill-rule:nonzero;"/></g><g id="Layer_17" serif:id="Layer_1"><path d="M1659.19,1044.3c11.265,416.011 -333.661,756.007 -770.443,759.641c-436.721,3.282 -799.729,-330.996 -810.99,-747.006l1581.43,-12.635Z" style="fill:url(#_Radial7);fill-rule:nonzero;"/></g><g id="Layer_18" serif:id="Layer_1"><path d="M0.029,1056.76c1.193,42.332 38.306,76.331 82.695,76.267l1575.79,-12.871c44.443,-0.413 79.519,-35.18 78.696,-77.45c-1.193,-42.332 -38.307,-76.327 -82.751,-75.914l-1576.15,12.805c-44.019,0.126 -79.464,34.83 -78.272,77.163Z" style="fill:url(#_Radial8);fill-rule:nonzero;"/></g></g></g><defs><radialGradient id="_Radial1" cx="0" cy="0" r="1" gradientUnits="userSpaceOnUse" gradientTransform="matrix(210.684,35.5918,-33.7919,200.029,752.403,343.147)"><stop offset="0" style="stop-color:#fbae08;stop-opacity:1"/><stop offset="0.34" style="stop-color:#fbac09;stop-opacity:1"/><stop offset="0.51" style="stop-color:#f88a18;stop-opacity:1"/><stop offset="0.66" style="stop-color:#f67123;stop-opacity:1"/><stop offset="0.81" style="stop-color:#f5622a;stop-opacity:1"/><stop offset="0.92" style="stop-color:#f55d2c;stop-opacity:1"/><stop offset="1" style="stop-color:#f55d2c;stop-opacity:1"/></radialGradient><radialGradient id="_Radial2" cx="0" cy="0" r="1" gradientUnits="userSpaceOnUse" gradientTransform="matrix(195.522,33.0303,-31.36,185.634,1006,-16.0512)"><stop offset="0" style="stop-color:#fa128b;stop-opacity:1"/><stop offset="0" style="stop-color:#fa128b;stop-opacity:1"/><stop offset="0.13" style="stop-color:#f4138a;stop-opacity:1"/><stop offset="0.3" style="stop-color:#e31688;stop-opacity:1"/><stop offset="0.49" style="stop-color:#c61b84;stop-opacity:1"/><stop offset="0.71" style="stop-color:#9f227f;stop-opacity:1"/><stop offset="0.93" style="stop-color:#6d2a79;stop-opacity:1"/><stop offset="1" style="stop-color:#5c2d77;stop-opacity:1"/></radialGradient><radialGradient id="_Radial3" cx="0" cy="0" r="1" gradientUnits="userSpaceOnUse" gradientTransform="matrix(30.6679,5.18087,-4.91887,29.117,1515.39,360.326)"><stop offset="0" style="stop-color:#fa128b;stop-opacity:1"/><stop offset="0" style="stop-color:#fa128b;stop-opacity:1"/><stop offset="0.13" style="stop-color:#f4138a;stop-opacity:1"/><stop offset="0.3" style="stop-color:#e31688;stop-opacity:1"/><stop offset="0.49" style="stop-color:#c61b84;stop-opacity:1"/><stop offset="0.71" style="stop-color:#9f227f;stop-opacity:1"/><stop offset="0.93" style="stop-color:#6d2a79;stop-opacity:1"/><stop offset="1" style="stop-color:#5c2d77;stop-opacity:1"/></radialGradient><radialGradient id="_Radial4" cx="0" cy="0" r="1" gradientUnits="userSpaceOnUse" gradientTransform="matrix(-676.19,-114.232,-108.455,641.992,1657.2,97.6639)"><stop offset="0" style="stop-color:#fbae08;stop-opacity:1"/><stop offset="0.34" style="stop-color:#fbac09;stop-opacity:1"/><stop offset="0.51" style="stop-color:#f88a18;stop-opacity:1"/><stop offset="0.66" style="stop-color:#f67123;stop-opacity:1"/><stop offset="0.81" style="stop-color:#f5622a;stop-opacity:1"/><stop offset="0.92" style="stop-color:#f55d2c;stop-opacity:1"/><stop offset="1" style="stop-color:#f55d2c;stop-opacity:1"/></radialGradient><radialGradient id="_Radial5" cx="0" cy="0" r="1" gradientUnits="userSpaceOnUse" gradientTransform="matrix(124.626,21.0537,-19.989,118.324,1096.89,789.797)"><stop offset="0" style="stop-color:#fa128b;stop-opacity:1"/><stop offset="0" style="stop-color:#fa128b;stop-opacity:1"/><stop offset="0.13" style="stop-color:#f4138a;stop-opacity:1"/><stop offset="0.3" style="stop-color:#e31688;stop-opacity:1"/><stop offset="0.49" style="stop-color:#c61b84;stop-opacity:1"/><stop offset="0.71" style="stop-color:#9f227f;stop-opacity:1"/><stop offset="0.93" style="stop-color:#6d2a79;stop-opacity:1"/><stop offset="1" style="stop-color:#5c2d77;stop-opacity:1"/></radialGradient><radialGradient id="_Radial6" cx="0" cy="0" r="1" gradientUnits="userSpaceOnUse" gradientTransform="matrix(588.93,99.4906,-94.46,559.152,412.867,352.848)"><stop offset="0" style="stop-color:#fa128b;stop-opacity:1"/><stop offset="0" style="stop-color:#fa128b;stop-opacity:1"/><stop offset="0.13" style="stop-color:#f4138a;stop-opacity:1"/><stop offset="0.3" style="stop-color:#e31688;stop-opacity:1"/><stop offset="0.49" style="stop-color:#c61b84;stop-opacity:1"/><stop offset="0.71" style="stop-color:#9f227f;stop-opacity:1"/><stop offset="0.93" style="stop-color:#6d2a79;stop-opacity:1"/><stop offset="1" style="stop-color:#5c2d77;stop-opacity:1"/></radialGradient><radialGradient id="_Radial7" cx="0" cy="0" r="1" gradientUnits="userSpaceOnUse" gradientTransform="matrix(-941.463,4.98435,21.2916,896.651,1326.94,1088.91)"><stop offset="0" style="stop-color:#fb5733;stop-opacity:1"/><stop offset="0.08" style="stop-color:#fb5733;stop-opacity:1"/><stop offset="0.19" style="stop-color:#f85233;stop-opacity:1"/><stop offset="0.33" style="stop-color:#ee4334;stop-opacity:1"/><stop offset="0.48" style="stop-color:#de2a36;stop-opacity:1"/><stop offset="0.64" style="stop-color:#c80838;stop-opacity:1"/><stop offset="0.67" style="stop-color:#c30038;stop-opacity:1"/><stop offset="1" style="stop-color:#c30038;stop-opacity:1"/></radialGradient><radialGradient id="_Radial8" cx="0" cy="0" r="1" gradientUnits="userSpaceOnUse" gradientTransform="matrix(-1217,6.44381,27.523,1159.07,1229.72,755.84)"><stop offset="0" style="stop-color:#fbae08;stop-opacity:1"/><stop offset="0.11" style="stop-color:#fbac09;stop-opacity:1"/><stop offset="0.34" style="stop-color:#f88a18;stop-opacity:1"/><stop offset="0.56" style="stop-color:#f67123;stop-opacity:1"/><stop offset="0.76" style="stop-color:#f5622a;stop-opacity:1"/><stop offset="0.92" style="stop-color:#f55d2c;stop-opacity:1"/><stop offset="1" style="stop-color:#f55d2c;stop-opacity:1"/></radialGradient></defs></svg>