<?xml version="1.0" encoding="UTF-8" standalone="no"?><!DOCTYPE svg PUBLIC "-//W3C//DTD SVG 1.1//EN" "http://www.w3.org/Graphics/SVG/1.1/DTD/svg11.dtd"><svg width="100%" height="100%" viewBox="0 0 485 430" version="1.1" xmlns="http://www.w3.org/2000/svg" xmlns:xlink="http://www.w3.org/1999/xlink" xml:space="preserve" xmlns:serif="http://www.serif.com/" style="fill-rule:evenodd;clip-rule:evenodd;stroke-linejoin:round;stroke-miterlimit:2;"><g><g><g><g id="Layer_1"><ellipse cx="199.742" cy="117.257" rx="12.557" ry="11.979" style="fill:#dfc77e;"/></g><g id="Layer_11" serif:id="Layer_1"><ellipse cx="236.687" cy="39.913" rx="12.557" ry="11.979" style="fill:#dfc77e;"/></g><g id="Layer_12" serif:id="Layer_1"><path d="M333.514,87.76l6.823,-0c1.887,-2.285 3.557,-4.57 4.863,-6.786c0,0 -4.573,2.77 -11.686,6.786Z" style="fill:#fff;fill-rule:nonzero;"/></g><g id="Layer_13" serif:id="Layer_1"><path d="M80.124,228.253c-2.613,0.415 -5.154,1.108 -7.549,2.077l0,-165.489l220.147,-0c-8.347,7.478 -14.226,15.51 -18.291,22.988l-177.758,0l-0,137.931l-16.549,2.493Zm16.549,126.644l-0,-23.196c-9.363,-12.533 -16.985,-26.381 -22.356,-41.338c-0.581,-0.207 -1.161,-0.484 -1.742,-0.692l0,88.215l76.649,-0c-11.396,-6.509 -21.993,-14.195 -31.574,-22.989l-20.977,0Zm280.028,0l-20.25,0c-9.509,8.725 -20.034,16.48 -31.574,22.989l75.922,-0l0,-91.608c-5.443,16.618 -13.573,32.198 -24.098,46.185l0,22.434Zm0,-245.603l0,73.605l5.952,-0.9c2.033,-0.346 4.138,-0.416 6.243,-0.416c4.209,0.07 8.202,0.97 11.903,2.355l0,-119.167l-3.121,0c-3.411,13.918 -9.581,30.467 -20.977,44.523Z" style="fill:#fff;fill-rule:nonzero;"/></g><g id="Layer_14" serif:id="Layer_1"><path d="M249.752,138.515c0,-0 -10.742,-87.038 118.53,-102.895c-0,0 24.896,126.991 -108.223,119.79c0,-0 51.825,-37.114 61.624,-65.642c-0,-0 -49.067,44.315 -71.931,48.747Z" style="fill:#dfc77e;fill-rule:nonzero;"/></g><g id="Layer_15" serif:id="Layer_1"><path d="M291.343,196.955c0.798,-1.592 1.306,-3.393 1.306,-5.262c0,-6.648 -5.661,-11.979 -12.557,-11.979c-6.895,-0 -12.557,5.401 -12.557,11.979c0,3.116 1.307,5.955 3.339,8.101l20.469,-2.839Z" style="fill:#dfc77e;fill-rule:nonzero;"/></g><g id="Layer_16" serif:id="Layer_1"><path d="M184.354,211.842c-10.96,-10.94 -21.049,-23.265 -24.823,-34.344c-0,0 19.96,18.003 40.284,32.198l30.122,-4.224c-5.516,-26.797 -28.235,-71.251 -117.078,-82.191c0,0 -11.758,59.895 24.025,95.07l47.47,-6.509Z" style="fill:#dfc77e;fill-rule:nonzero;"/></g><g id="Layer_17" serif:id="Layer_1"><path d="M386.428,208.865c15.605,79.629 -39.413,156.211 -122.885,171.098c-83.471,14.818 -163.749,-37.668 -179.354,-117.297l302.239,-53.801Z" style="fill:#dfc77e;fill-rule:nonzero;"/></g><g id="Layer_18" serif:id="Layer_1"><path d="M69.309,265.159c1.597,8.101 9.799,13.433 18.291,11.979l301.15,-53.663c8.493,-1.523 14.082,-9.348 12.557,-17.449c-1.596,-8.101 -9.798,-13.433 -18.291,-11.91l-301.223,53.663c-8.419,1.454 -14.081,9.279 -12.484,17.38Z" style="fill:#fff;fill-rule:nonzero;"/></g></g></g><rect x="-0" y="-0" width="484.263" height="429.685" style="fill:none;"/></g></svg>