<?xml version="1.0" encoding="UTF-8" standalone="no"?><!DOCTYPE svg PUBLIC "-//W3C//DTD SVG 1.1//EN" "http://www.w3.org/Graphics/SVG/1.1/DTD/svg11.dtd"><svg width="100%" height="100%" viewBox="0 0 353 355" version="1.1" xmlns="http://www.w3.org/2000/svg" xmlns:xlink="http://www.w3.org/1999/xlink" xml:space="preserve" xmlns:serif="http://www.serif.com/" style="fill-rule:evenodd;clip-rule:evenodd;stroke-linejoin:round;stroke-miterlimit:2;"><g><g><g><g id="Layer_1"><ellipse cx="138.427" cy="89.323" rx="13.299" ry="11.979" style="fill:#d9d9d9;"/></g><g id="Layer_11" serif:id="Layer_1"><ellipse cx="177.555" cy="11.979" rx="13.299" ry="11.979" style="fill:#d9d9d9;"/></g><g id="Layer_12" serif:id="Layer_1"><path d="M280.104,59.825l7.226,0c1.999,-2.285 3.767,-4.57 5.15,-6.785c0,-0 -4.843,2.769 -12.376,6.785Z" style="fill:#d9d9d9;fill-rule:nonzero;"/></g><g id="Layer_13" serif:id="Layer_1"><path d="M11.74,200.318c-2.768,0.416 -5.458,1.108 -7.995,2.078l0,-165.49l233.156,0c-8.84,7.478 -15.067,15.511 -19.372,22.989l-188.262,-0l-0,137.931l-17.527,2.492Zm17.527,126.645l-0,-23.196c-9.917,-12.533 -17.988,-26.382 -23.677,-41.338c-0.615,-0.208 -1.23,-0.485 -1.845,-0.692l0,88.214l81.178,0c-12.069,-6.508 -23.293,-14.194 -33.44,-22.988l-22.216,-0Zm296.576,-0l-21.447,-0c-10.071,8.724 -21.217,16.48 -33.44,22.988l80.409,0l0,-91.607c-5.765,16.618 -14.375,32.197 -25.522,46.184l0,22.435Zm0,-245.603l0,73.605l6.304,-0.901c2.152,-0.346 4.382,-0.415 6.611,-0.415c4.459,0.069 8.687,0.969 12.607,2.354l0,-119.166l-3.305,-0c-3.613,13.918 -10.148,30.467 -22.217,44.523Z" style="fill:#d9d9d9;fill-rule:nonzero;"/></g><g id="Layer_14" serif:id="Layer_1"><path d="M191.392,110.58c0,0 -11.377,-87.038 125.534,-102.894c0,-0 26.368,126.991 -114.618,119.789c0,0 54.888,-37.114 65.266,-65.641c-0,-0 -51.967,44.315 -76.182,48.746Z" style="fill:#d9d9d9;fill-rule:nonzero;"/></g><g id="Layer_15" serif:id="Layer_1"><path d="M235.441,169.021c0.845,-1.593 1.383,-3.393 1.383,-5.263c0,-6.647 -5.996,-11.979 -13.299,-11.979c-7.303,0 -13.299,5.401 -13.299,11.979c0,3.116 1.384,5.955 3.536,8.102l21.679,-2.839Z" style="fill:#d9d9d9;fill-rule:nonzero;"/></g><g id="Layer_16" serif:id="Layer_1"><path d="M122.13,183.908c-11.608,-10.94 -22.294,-23.265 -26.291,-34.344c0,-0 21.14,18.003 42.665,32.197l31.902,-4.223c-5.842,-26.797 -29.904,-71.251 -123.996,-82.191c-0,-0 -12.454,59.895 25.445,95.07l50.275,-6.509Z" style="fill:#d9d9d9;fill-rule:nonzero;"/></g><g id="Layer_17" serif:id="Layer_1"><path d="M336.144,180.931c16.528,79.628 -41.742,156.211 -130.146,171.098c-88.404,14.818 -173.426,-37.668 -189.953,-117.297l320.099,-53.801Z" style="fill:#d9d9d9;fill-rule:nonzero;"/></g><g id="Layer_18" serif:id="Layer_1"><path d="M0.286,237.225c1.691,8.101 10.378,13.433 19.372,11.979l318.946,-53.663c8.994,-1.524 14.914,-9.348 13.299,-17.449c-1.691,-8.102 -10.378,-13.433 -19.372,-11.91l-319.023,53.663c-8.917,1.454 -14.913,9.278 -13.222,17.38Z" style="fill:#d9d9d9;fill-rule:nonzero;"/></g></g></g></g></svg>