<?xml version="1.0" encoding="UTF-8" standalone="no"?><!DOCTYPE svg PUBLIC "-//W3C//DTD SVG 1.1//EN" "http://www.w3.org/Graphics/SVG/1.1/DTD/svg11.dtd"><svg width="100%" height="100%" viewBox="0 0 403 427" version="1.1" xmlns="http://www.w3.org/2000/svg" xmlns:xlink="http://www.w3.org/1999/xlink" xml:space="preserve" xmlns:serif="http://www.serif.com/" style="fill-rule:evenodd;clip-rule:evenodd;stroke-linejoin:round;stroke-miterlimit:2;"><g><g><g><g id="Layer_1"><ellipse cx="158.052" cy="107.5" rx="15.185" ry="14.417" style="fill:url(#_Radial1);"/></g><g id="Layer_11" serif:id="Layer_1"><ellipse cx="202.728" cy="14.417" rx="15.185" ry="14.417" style="fill:url(#_Radial2);"/></g><g id="Layer_12" serif:id="Layer_1"><path d="M319.816,72l8.251,0c2.282,-2.75 4.301,-5.5 5.88,-8.167c0,0 -5.529,3.334 -14.131,8.167Z" style="fill:url(#_Radial3);fill-rule:nonzero;"/></g><g id="Layer_13" serif:id="Layer_1"><path d="M13.404,241.083c-3.16,0.5 -6.232,1.334 -9.128,2.5l-0,-199.166l266.212,-0c-10.093,9 -17.203,18.666 -22.118,27.666l-214.954,0l0,166l-20.012,3Zm20.012,152.417l0,-27.917c-11.322,-15.083 -20.538,-31.75 -27.033,-49.75c-0.703,-0.25 -1.405,-0.583 -2.107,-0.833l-0,106.167l92.687,-0c-13.78,-7.834 -26.595,-17.084 -38.181,-27.667l-25.366,0Zm338.625,0l-24.489,0c-11.498,10.5 -24.225,19.833 -38.181,27.667l91.81,-0l-0,-110.25c-6.583,20 -16.414,38.75 -29.14,55.583l-0,27Zm-0,-295.583l-0,88.583l7.197,-1.083c2.457,-0.417 5.003,-0.5 7.548,-0.5c5.091,0.083 9.918,1.166 14.395,2.833l-0,-143.417l-3.774,0c-4.126,16.75 -11.586,36.667 -25.366,53.584Z" style="fill:url(#_Radial4);fill-rule:nonzero;"/></g><g id="Layer_14" serif:id="Layer_1"><path d="M218.527,133.083c0,0 -12.99,-104.75 143.332,-123.833c-0,-0 30.106,152.833 -130.868,144.167c-0,-0 62.669,-44.667 74.518,-79c0,-0 -59.333,53.333 -86.982,58.666Z" style="fill:url(#_Radial5);fill-rule:nonzero;"/></g><g id="Layer_15" serif:id="Layer_1"><path d="M268.821,203.417c0.965,-1.917 1.58,-4.084 1.58,-6.334c-0,-8 -6.847,-14.416 -15.185,-14.416c-8.338,-0 -15.185,6.5 -15.185,14.416c0,3.75 1.58,7.167 4.038,9.75l24.752,-3.416Z" style="fill:url(#_Radial6);fill-rule:nonzero;"/></g><g id="Layer_16" serif:id="Layer_1"><path d="M139.445,221.333c-13.254,-13.166 -25.454,-28 -30.018,-41.333c-0,0 24.137,21.667 48.713,38.75l36.426,-5.083c-6.671,-32.25 -34.144,-85.75 -141.577,-98.917c0,0 -14.219,72.083 29.053,114.417l57.403,-7.834Z" style="fill:url(#_Radial7);fill-rule:nonzero;"/></g><g id="Layer_17" serif:id="Layer_1"><path d="M383.802,217.75c18.871,95.833 -47.66,188 -148.598,205.917c-100.938,17.833 -198.014,-45.334 -216.884,-141.167l365.482,-64.75Z" style="fill:url(#_Radial8);fill-rule:nonzero;"/></g><g id="Layer_18" serif:id="Layer_1"><path d="M0.326,285.5c1.931,9.75 11.849,16.167 22.119,14.417l364.166,-64.584c10.269,-1.833 17.027,-11.25 15.184,-21c-1.931,-9.75 -11.849,-16.166 -22.118,-14.333l-364.254,64.583c-10.182,1.75 -17.028,11.167 -15.097,20.917Z" style="fill:url(#_Radial9);fill-rule:nonzero;"/></g></g></g></g><defs><radialGradient id="_Radial1" cx="0" cy="0" r="1" gradientUnits="userSpaceOnUse" gradientTransform="matrix(50.148,0,0,47.612,146.542,90.9408)"><stop offset="0" style="stop-color:#fbae08;stop-opacity:1"/><stop offset="0.34" style="stop-color:#fbac09;stop-opacity:1"/><stop offset="0.51" style="stop-color:#f88a18;stop-opacity:1"/><stop offset="0.66" style="stop-color:#f67123;stop-opacity:1"/><stop offset="0.81" style="stop-color:#f5622a;stop-opacity:1"/><stop offset="0.92" style="stop-color:#f55d2c;stop-opacity:1"/><stop offset="1" style="stop-color:#f55d2c;stop-opacity:1"/></radialGradient><radialGradient id="_Radial2" cx="0" cy="0" r="1" gradientUnits="userSpaceOnUse" gradientTransform="matrix(46.539,0,0,44.1855,191.186,-2.09925)"><stop offset="0" style="stop-color:#fa128b;stop-opacity:1"/><stop offset="0" style="stop-color:#fa128b;stop-opacity:1"/><stop offset="0.13" style="stop-color:#f4138a;stop-opacity:1"/><stop offset="0.3" style="stop-color:#e31688;stop-opacity:1"/><stop offset="0.49" style="stop-color:#c61b84;stop-opacity:1"/><stop offset="0.71" style="stop-color:#9f227f;stop-opacity:1"/><stop offset="0.93" style="stop-color:#6d2a79;stop-opacity:1"/><stop offset="1" style="stop-color:#5c2d77;stop-opacity:1"/></radialGradient><radialGradient id="_Radial3" cx="0" cy="0" r="1" gradientUnits="userSpaceOnUse" gradientTransform="matrix(7.29973,0,0,6.93058,323.785,65.0873)"><stop offset="0" style="stop-color:#fa128b;stop-opacity:1"/><stop offset="0" style="stop-color:#fa128b;stop-opacity:1"/><stop offset="0.13" style="stop-color:#f4138a;stop-opacity:1"/><stop offset="0.3" style="stop-color:#e31688;stop-opacity:1"/><stop offset="0.49" style="stop-color:#c61b84;stop-opacity:1"/><stop offset="0.71" style="stop-color:#9f227f;stop-opacity:1"/><stop offset="0.93" style="stop-color:#6d2a79;stop-opacity:1"/><stop offset="1" style="stop-color:#5c2d77;stop-opacity:1"/></radialGradient><radialGradient id="_Radial4" cx="0" cy="0" r="1" gradientUnits="userSpaceOnUse" gradientTransform="matrix(257.013,0,0,244.016,116.287,103.226)"><stop offset="0" style="stop-color:#fa128b;stop-opacity:1"/><stop offset="0" style="stop-color:#fa128b;stop-opacity:1"/><stop offset="0.13" style="stop-color:#f4138a;stop-opacity:1"/><stop offset="0.3" style="stop-color:#e31688;stop-opacity:1"/><stop offset="0.49" style="stop-color:#c61b84;stop-opacity:1"/><stop offset="0.71" style="stop-color:#9f227f;stop-opacity:1"/><stop offset="0.93" style="stop-color:#6d2a79;stop-opacity:1"/><stop offset="1" style="stop-color:#5c2d77;stop-opacity:1"/></radialGradient><radialGradient id="_Radial5" cx="0" cy="0" r="1" gradientUnits="userSpaceOnUse" gradientTransform="matrix(-160.95,0,0,152.81,346.334,-1.24208)"><stop offset="0" style="stop-color:#fbae08;stop-opacity:1"/><stop offset="0.34" style="stop-color:#fbac09;stop-opacity:1"/><stop offset="0.51" style="stop-color:#f88a18;stop-opacity:1"/><stop offset="0.66" style="stop-color:#f67123;stop-opacity:1"/><stop offset="0.81" style="stop-color:#f5622a;stop-opacity:1"/><stop offset="0.92" style="stop-color:#f55d2c;stop-opacity:1"/><stop offset="1" style="stop-color:#f55d2c;stop-opacity:1"/></radialGradient><radialGradient id="_Radial6" cx="0" cy="0" r="1" gradientUnits="userSpaceOnUse" gradientTransform="matrix(29.6642,0,0,28.1641,243.726,180.837)"><stop offset="0" style="stop-color:#fa128b;stop-opacity:1"/><stop offset="0" style="stop-color:#fa128b;stop-opacity:1"/><stop offset="0.13" style="stop-color:#f4138a;stop-opacity:1"/><stop offset="0.3" style="stop-color:#e31688;stop-opacity:1"/><stop offset="0.49" style="stop-color:#c61b84;stop-opacity:1"/><stop offset="0.71" style="stop-color:#9f227f;stop-opacity:1"/><stop offset="0.93" style="stop-color:#6d2a79;stop-opacity:1"/><stop offset="1" style="stop-color:#5c2d77;stop-opacity:1"/></radialGradient><radialGradient id="_Radial7" cx="0" cy="0" r="1" gradientUnits="userSpaceOnUse" gradientTransform="matrix(140.18,0,0,133.092,68.3456,106.46)"><stop offset="0" style="stop-color:#fa128b;stop-opacity:1"/><stop offset="0" style="stop-color:#fa128b;stop-opacity:1"/><stop offset="0.13" style="stop-color:#f4138a;stop-opacity:1"/><stop offset="0.3" style="stop-color:#e31688;stop-opacity:1"/><stop offset="0.49" style="stop-color:#c61b84;stop-opacity:1"/><stop offset="0.71" style="stop-color:#9f227f;stop-opacity:1"/><stop offset="0.93" style="stop-color:#6d2a79;stop-opacity:1"/><stop offset="1" style="stop-color:#5c2d77;stop-opacity:1"/></radialGradient><radialGradient id="_Radial8" cx="0" cy="0" r="1" gradientUnits="userSpaceOnUse" gradientTransform="matrix(-217.679,37.9599,39.9818,206.671,308.658,241.063)"><stop offset="0" style="stop-color:#fb5733;stop-opacity:1"/><stop offset="0.08" style="stop-color:#fb5733;stop-opacity:1"/><stop offset="0.19" style="stop-color:#f85233;stop-opacity:1"/><stop offset="0.33" style="stop-color:#ee4334;stop-opacity:1"/><stop offset="0.48" style="stop-color:#de2a36;stop-opacity:1"/><stop offset="0.64" style="stop-color:#c80838;stop-opacity:1"/><stop offset="0.67" style="stop-color:#c30038;stop-opacity:1"/><stop offset="1" style="stop-color:#c30038;stop-opacity:1"/></radialGradient><radialGradient id="_Radial9" cx="0" cy="0" r="1" gradientUnits="userSpaceOnUse" gradientTransform="matrix(-281.386,49.0696,51.6832,267.157,273.136,167.786)"><stop offset="0" style="stop-color:#fbae08;stop-opacity:1"/><stop offset="0.11" style="stop-color:#fbac09;stop-opacity:1"/><stop offset="0.34" style="stop-color:#f88a18;stop-opacity:1"/><stop offset="0.56" style="stop-color:#f67123;stop-opacity:1"/><stop offset="0.76" style="stop-color:#f5622a;stop-opacity:1"/><stop offset="0.92" style="stop-color:#f55d2c;stop-opacity:1"/><stop offset="1" style="stop-color:#f55d2c;stop-opacity:1"/></radialGradient></defs></svg>