<?xml version="1.0" encoding="UTF-8" standalone="no"?><!DOCTYPE svg PUBLIC "-//W3C//DTD SVG 1.1//EN" "http://www.w3.org/Graphics/SVG/1.1/DTD/svg11.dtd"><svg width="100%" height="100%" viewBox="0 0 333 355" version="1.1" xmlns="http://www.w3.org/2000/svg" xmlns:xlink="http://www.w3.org/1999/xlink" xml:space="preserve" xmlns:serif="http://www.serif.com/" style="fill-rule:evenodd;clip-rule:evenodd;stroke-linejoin:round;stroke-miterlimit:2;"><g><g><g><g id="Layer_1"><ellipse cx="130.703" cy="89.323" rx="12.557" ry="11.979" style="fill:#a2d6f5;"/></g><g id="Layer_11" serif:id="Layer_1"><ellipse cx="167.648" cy="11.979" rx="12.557" ry="11.979" style="fill:#a2d6f5;"/></g><g id="Layer_12" serif:id="Layer_1"><path d="M264.475,59.825l6.823,0c1.887,-2.285 3.557,-4.57 4.863,-6.785c0,-0 -4.573,2.769 -11.686,6.785Z" style="fill:#fff;fill-rule:nonzero;"/></g><g id="Layer_13" serif:id="Layer_1"><path d="M11.085,200.318c-2.613,0.416 -5.154,1.108 -7.549,2.078l0,-165.49l220.147,0c-8.347,7.478 -14.227,15.511 -18.291,22.989l-177.758,-0l-0,137.931l-16.549,2.492Zm16.549,126.645l-0,-23.196c-9.363,-12.533 -16.985,-26.382 -22.356,-41.338c-0.581,-0.208 -1.161,-0.485 -1.742,-0.692l0,88.214l76.649,0c-11.396,-6.508 -21.993,-14.194 -31.574,-22.988l-20.977,-0Zm280.028,-0l-20.25,-0c-9.509,8.724 -20.034,16.48 -31.574,22.988l75.922,0l0,-91.607c-5.444,16.618 -13.573,32.197 -24.098,46.184l0,22.435Zm0,-245.603l0,73.605l5.952,-0.901c2.033,-0.346 4.138,-0.415 6.243,-0.415c4.209,0.069 8.201,0.969 11.903,2.354l0,-119.166l-3.121,-0c-3.411,13.918 -9.581,30.467 -20.977,44.523Z" style="fill:#fff;fill-rule:nonzero;"/></g><g id="Layer_14" serif:id="Layer_1"><path d="M180.713,110.58c0,0 -10.742,-87.038 118.53,-102.894c-0,-0 24.896,126.991 -108.223,119.789c0,0 51.825,-37.114 61.624,-65.641c-0,-0 -49.067,44.315 -71.931,48.746Z" style="fill:#a2d6f5;fill-rule:nonzero;"/></g><g id="Layer_15" serif:id="Layer_1"><path d="M222.304,169.021c0.798,-1.593 1.306,-3.393 1.306,-5.263c0,-6.647 -5.661,-11.979 -12.557,-11.979c-6.895,0 -12.557,5.401 -12.557,11.979c0,3.116 1.307,5.955 3.339,8.102l20.469,-2.839Z" style="fill:#a2d6f5;fill-rule:nonzero;"/></g><g id="Layer_16" serif:id="Layer_1"><path d="M115.315,183.908c-10.96,-10.94 -21.049,-23.265 -24.823,-34.344c-0,-0 19.96,18.003 40.284,32.197l30.122,-4.223c-5.517,-26.797 -28.235,-71.251 -117.078,-82.191c0,-0 -11.758,59.895 24.025,95.07l47.47,-6.509Z" style="fill:#a2d6f5;fill-rule:nonzero;"/></g><g id="Layer_17" serif:id="Layer_1"><path d="M317.389,180.931c15.605,79.628 -39.413,156.211 -122.885,171.098c-83.471,14.818 -163.749,-37.668 -179.355,-117.297l302.24,-53.801Z" style="fill:#a2d6f5;fill-rule:nonzero;"/></g><g id="Layer_18" serif:id="Layer_1"><path d="M0.27,237.225c1.597,8.101 9.799,13.433 18.291,11.979l301.15,-53.663c8.493,-1.524 14.082,-9.348 12.557,-17.449c-1.596,-8.102 -9.798,-13.433 -18.291,-11.91l-301.223,53.663c-8.42,1.454 -14.081,9.278 -12.484,17.38Z" style="fill:#fff;fill-rule:nonzero;"/></g></g></g></g></svg>