<?xml version="1.0" encoding="UTF-8" standalone="no"?><!DOCTYPE svg PUBLIC "-//W3C//DTD SVG 1.1//EN" "http://www.w3.org/Graphics/SVG/1.1/DTD/svg11.dtd"><svg width="100%" height="100%" viewBox="0 0 836 533" version="1.1" xmlns="http://www.w3.org/2000/svg" xmlns:xlink="http://www.w3.org/1999/xlink" xml:space="preserve" xmlns:serif="http://www.serif.com/" style="fill-rule:evenodd;clip-rule:evenodd;stroke-linejoin:round;stroke-miterlimit:2;"><g><g><g><g id="Layer_1"><ellipse cx="380.114" cy="89.323" rx="13.299" ry="11.979" style="fill:#595959;"/></g><g id="Layer_11" serif:id="Layer_1"><ellipse cx="419.243" cy="11.979" rx="13.299" ry="11.979" style="fill:#595959;"/></g><g id="Layer_12" serif:id="Layer_1"><path d="M521.792,59.825l7.226,0c1.998,-2.285 3.766,-4.57 5.15,-6.785c0,-0 -4.843,2.769 -12.376,6.785Z" style="fill:#595959;fill-rule:nonzero;"/></g><g id="Layer_13" serif:id="Layer_1"><path d="M253.428,200.318c-2.768,0.416 -5.458,1.108 -7.995,2.078l-0,-165.49l233.156,0c-8.841,7.478 -15.067,15.511 -19.372,22.989l-188.262,-0l-0,137.931l-17.527,2.492Zm17.527,126.645l-0,-23.196c-9.917,-12.533 -17.989,-26.382 -23.677,-41.338c-0.615,-0.208 -1.23,-0.485 -1.845,-0.692l-0,88.214l81.178,0c-12.069,-6.508 -23.293,-14.194 -33.44,-22.988l-22.216,-0Zm296.576,-0l-21.448,-0c-10.07,8.724 -21.217,16.48 -33.439,22.988l80.409,0l-0,-91.607c-5.766,16.618 -14.375,32.197 -25.522,46.184l0,22.435Zm0,-245.603l0,73.605l6.304,-0.901c2.152,-0.346 4.381,-0.415 6.611,-0.415c4.458,0.069 8.686,0.969 12.607,2.354l-0,-119.166l-3.306,-0c-3.613,13.918 -10.147,30.467 -22.216,44.523Z" style="fill:#595959;fill-rule:nonzero;"/></g><g id="Layer_14" serif:id="Layer_1"><path d="M433.08,110.58c0,0 -11.377,-87.038 125.534,-102.894c-0,-0 26.367,126.991 -114.618,119.789c-0,0 54.887,-37.114 65.265,-65.641c0,-0 -51.966,44.315 -76.181,48.746Z" style="fill:#595959;fill-rule:nonzero;"/></g><g id="Layer_15" serif:id="Layer_1"><path d="M477.128,169.021c0.846,-1.593 1.384,-3.393 1.384,-5.263c0,-6.647 -5.996,-11.979 -13.299,-11.979c-7.303,0 -13.299,5.401 -13.299,11.979c-0,3.116 1.384,5.955 3.536,8.102l21.678,-2.839Z" style="fill:#595959;fill-rule:nonzero;"/></g><g id="Layer_16" serif:id="Layer_1"><path d="M363.817,183.908c-11.608,-10.94 -22.293,-23.265 -26.29,-34.344c-0,-0 21.14,18.003 42.664,32.197l31.903,-4.223c-5.843,-26.797 -29.904,-71.251 -123.997,-82.191c0,-0 -12.453,59.895 25.445,95.07l50.275,-6.509Z" style="fill:#595959;fill-rule:nonzero;"/></g><g id="Layer_17" serif:id="Layer_1"><path d="M577.832,180.931c16.528,79.628 -41.742,156.211 -130.146,171.098c-88.404,14.818 -173.426,-37.668 -189.954,-117.297l320.1,-53.801Z" style="fill:#595959;fill-rule:nonzero;"/></g><g id="Layer_18" serif:id="Layer_1"><path d="M241.973,237.225c1.692,8.101 10.378,13.433 19.372,11.979l318.947,-53.663c8.994,-1.524 14.913,-9.348 13.299,-17.449c-1.691,-8.102 -10.378,-13.433 -19.372,-11.91l-319.023,53.663c-8.918,1.454 -14.914,9.278 -13.223,17.38Z" style="fill:#595959;fill-rule:nonzero;"/></g></g></g><g><g><text x="-5.816px" y="529.883px" style="font-family:'AAvanteTckHeavy', 'a_AvanteTck', sans-serif;font-weight:900;font-size:161.551px;fill:#595959;">С<tspan x="119.71px " y="529.883px ">А</tspan>МОВАР</text></g></g></g></svg>